<svg xmlns="http://www.w3.org/2000/svg" xmlns:xlink="http://www.w3.org/1999/xlink" width="1200" zoomAndPan="magnify" viewBox="0 0 900 899.99999" height="1200" preserveAspectRatio="xMidYMid meet" version="1.0"><defs><g/></defs><g fill="#8c52ff" fill-opacity="1"><g transform="translate(135.497804, 624.891619)"><g><path d="M 309.636719 -262.289062 C 248.761719 -227.71875 184.128906 -202.917969 123.253906 -170.601562 C 105.214844 -220.203125 79.664062 -266.046875 63.128906 -316.398438 C 53.359375 -346.460938 41.335938 -386.292969 59.371094 -416.355469 C 90.183594 -464.453125 193.144531 -453.929688 201.414062 -391.554688 C 203.667969 -368.253906 241.246094 -367.503906 238.238281 -391.554688 C 226.214844 -492.257812 66.886719 -520.066406 22.546875 -426.875 C -18.789062 -339.695312 61.625 -232.226562 89.433594 -151.058594 C 72.148438 -141.289062 54.863281 -130.015625 39.082031 -117.242188 C -18.789062 -73.652344 -92.441406 42.085938 16.535156 81.917969 C 63.882812 99.203125 119.496094 65.382812 138.285156 21.042969 C 158.574219 -26.304688 149.554688 -83.421875 135.277344 -133.773438 C 198.40625 -167.59375 266.046875 -193.144531 329.175781 -229.21875 C 350.96875 -241.246094 331.429688 -274.3125 309.636719 -262.289062 Z M 111.226562 -44.339844 C 111.226562 -17.285156 107.46875 5.261719 88.683594 25.550781 C 65.382812 49.601562 24.050781 60.125 4.507812 23.296875 C -20.292969 -24.050781 37.578125 -69.894531 71.394531 -93.941406 C 80.414062 -100.707031 90.9375 -107.46875 100.707031 -113.484375 C 106.71875 -90.9375 111.226562 -67.640625 111.226562 -44.339844 Z M 111.226562 -44.339844 "/></g></g></g><g fill="#8c52ff" fill-opacity="1"><g transform="translate(427.846586, 624.891619)"><g><path d="M 402.824219 -253.269531 C 353.222656 -239.742188 300.617188 -219.449219 251.765625 -191.644531 C 236.734375 -222.457031 207.425781 -232.226562 174.359375 -229.21875 C 217.195312 -278.070312 257.777344 -338.945312 236.734375 -393.808594 C 197.65625 -492.257812 87.179688 -424.621094 55.613281 -358.484375 C 51.855469 -356.230469 48.097656 -352.472656 46.59375 -347.210938 C 18.789062 -245.003906 -13.527344 -144.296875 -46.59375 -44.339844 C -54.109375 -21.042969 -17.285156 -11.273438 -10.523438 -33.820312 C 21.792969 -133.023438 53.359375 -231.472656 80.414062 -331.429688 C 81.917969 -332.933594 83.421875 -335.1875 84.925781 -337.441406 C 97.699219 -366 129.265625 -411.09375 166.84375 -407.335938 C 191.644531 -404.328125 204.417969 -378.023438 202.917969 -356.980469 C 202.164062 -341.949219 194.648438 -327.671875 187.132812 -314.894531 C 163.835938 -272.808594 130.015625 -237.488281 96.195312 -202.917969 C 81.167969 -187.132812 100.707031 -163.085938 119.496094 -172.855469 C 144.296875 -186.382812 188.636719 -211.183594 212.6875 -184.128906 C 215.691406 -181.121094 217.195312 -177.363281 219.449219 -172.855469 C 157.070312 -134.527344 101.457031 -84.925781 65.382812 -28.558594 C 47.347656 0 8.265625 65.382812 40.582031 97.699219 C 65.382812 121.75 106.71875 101.457031 130.769531 86.425781 C 206.671875 39.832031 263.789062 -56.367188 260.785156 -147.300781 C 260.785156 -148.054688 260.785156 -148.804688 260.785156 -150.308594 C 308.882812 -177.363281 359.988281 -199.910156 412.597656 -217.195312 C 435.140625 -224.710938 426.125 -259.28125 402.824219 -253.269531 Z M 220.203125 -111.226562 C 208.929688 -46.59375 170.601562 14.277344 115.738281 50.351562 C 107.46875 56.367188 85.675781 72.148438 75.152344 69.140625 C 59.371094 64.632812 73.652344 39.832031 78.910156 27.054688 C 98.453125 -16.535156 129.265625 -51.855469 165.339844 -82.667969 C 183.375 -98.453125 202.917969 -112.730469 222.457031 -126.257812 C 221.703125 -121 220.953125 -115.738281 220.203125 -111.226562 Z M 220.203125 -111.226562 "/></g></g></g></svg>