<svg xmlns="http://www.w3.org/2000/svg" xmlns:xlink="http://www.w3.org/1999/xlink" width="300" zoomAndPan="magnify" viewBox="0 0 224.87999 149.999998" height="200" preserveAspectRatio="xMidYMid meet" version="1.0"><defs><g/></defs><g fill="#e3d9ca" fill-opacity="1"><g transform="translate(27.135602, 67.80547)"><g><path d="M 14.878906 -15.246094 C 14.058594 -16.203125 13.554688 -16.660156 12.734375 -17.390625 L 13.238281 -18.304688 C 13.554688 -18.804688 13.191406 -19.398438 12.597656 -19.398438 L 10.40625 -19.398438 C 10.085938 -19.765625 9.449219 -20.402344 9.3125 -20.585938 C 7.941406 -22.136719 7.394531 -23.78125 7.621094 -25.515625 C 7.941406 -28.070312 10.726562 -28.574219 11.820312 -26.15625 L 12.277344 -24.96875 C 12.460938 -24.464844 12.828125 -24.238281 13.375 -24.238281 C 14.46875 -24.238281 15.65625 -24.464844 16.886719 -24.875 C 17.34375 -25.058594 17.574219 -25.332031 17.480469 -25.878906 C 17.027344 -29.714844 14.011719 -34.1875 7.304688 -32.5 C 4.382812 -31.769531 2.144531 -29.210938 1.871094 -25.652344 C 1.644531 -22.59375 2.648438 -19.808594 4.839844 -17.4375 L 6.117188 -16.160156 L 5.386719 -14.878906 C 5.113281 -14.378906 5.476562 -13.738281 6.070312 -13.785156 L 8.535156 -13.785156 L 8.945312 -13.375 C 11.320312 -10.953125 12.277344 -10.542969 12.234375 -7.851562 C 12.234375 -6.617188 11.320312 -5.433594 10.222656 -5.15625 C 9.082031 -4.882812 8.171875 -5.386719 7.441406 -6.664062 C 7.210938 -7.121094 7.121094 -7.394531 6.984375 -7.941406 C 6.9375 -8.261719 6.847656 -8.445312 6.847656 -8.535156 C 6.574219 -9.496094 6.253906 -9.769531 5.339844 -9.722656 C 4.839844 -9.722656 3.789062 -9.585938 2.28125 -9.355469 C 1.324219 -9.21875 1.460938 -8.078125 1.550781 -7.394531 C 1.78125 -5.886719 2.417969 -4.289062 3.515625 -2.601562 C 3.878906 -2.054688 4.472656 -1.550781 5.25 -1.050781 C 6.527344 -0.273438 8.035156 0.0898438 9.769531 0 C 12.871094 -0.183594 13.738281 0.136719 15.792969 -2.28125 C 16.796875 -3.46875 17.4375 -4.792969 17.617188 -6.253906 C 18.074219 -9.585938 17.207031 -12.597656 14.878906 -15.246094 Z M 14.878906 -15.246094 "/></g></g></g><g fill="#e3d9ca" fill-opacity="1"><g transform="translate(49.819062, 67.80547)"><g><path d="M 19.855469 -16.570312 L 18.03125 -17.617188 L 18.03125 -29.441406 C 18.03125 -30.671875 18.121094 -31.816406 17.117188 -31.90625 C 16.476562 -31.953125 15.746094 -31.953125 14.972656 -31.953125 C 12.6875 -31.953125 12.644531 -31.90625 12.644531 -29.667969 L 12.644531 -9.496094 C 12.644531 -7.394531 12.324219 -5.386719 10.269531 -5.019531 C 8.625 -4.792969 7.714844 -6.480469 7.667969 -7.667969 C 7.621094 -8.171875 7.621094 -8.765625 7.621094 -9.449219 L 7.621094 -29.074219 C 7.621094 -30.765625 7.804688 -31.816406 6.574219 -31.90625 C 5.660156 -31.996094 3.058594 -32.042969 2.554688 -31.585938 C 2.328125 -31.359375 2.238281 -30.671875 2.238281 -29.578125 L 2.238281 -17.617188 L 0.410156 -16.570312 C 0.136719 -16.433594 0 -16.25 0 -15.929688 C 0 -15.65625 0.136719 -15.429688 0.410156 -15.292969 L 2.238281 -14.242188 L 2.238281 -8.351562 C 2.238281 -7.304688 2.417969 -5.980469 2.785156 -4.425781 C 2.96875 -3.789062 3.285156 -3.195312 3.652344 -2.648438 C 6.117188 0.546875 9.859375 1.1875 13.695312 -0.136719 C 13.96875 -0.226562 14.242188 -0.363281 14.46875 -0.59375 C 16.886719 -2.511719 18.121094 -4.792969 18.03125 -7.484375 C 18.03125 -9.039062 17.984375 -11.730469 17.984375 -14.195312 L 19.855469 -15.292969 C 20.128906 -15.429688 20.222656 -15.65625 20.222656 -15.929688 C 20.222656 -16.25 20.128906 -16.433594 19.855469 -16.570312 Z M 19.855469 -16.570312 "/></g></g></g><g fill="#e3d9ca" fill-opacity="1"><g transform="translate(74.921421, 67.80547)"><g><path d="M 26.65625 -16.523438 L 24.832031 -17.574219 L 24.832031 -29.394531 C 24.832031 -30.71875 25.011719 -31.816406 23.78125 -31.859375 C 22.367188 -31.90625 20.632812 -31.90625 18.578125 -31.859375 C 17.207031 -31.859375 17.34375 -30.902344 16.980469 -28.847656 C 16.796875 -28.027344 16.707031 -27.386719 16.613281 -26.886719 C 16.296875 -25.425781 15.929688 -23.414062 15.472656 -20.996094 L 14.378906 -15.0625 C 14.378906 -14.878906 14.332031 -14.789062 14.285156 -14.699219 C 13.96875 -13.96875 13.328125 -14.058594 13.144531 -14.605469 C 12.964844 -15.152344 12.828125 -15.566406 12.78125 -15.792969 L 10.40625 -27.796875 L 9.769531 -30.949219 C 9.632812 -31.539062 9.265625 -31.859375 8.765625 -31.859375 L 3.195312 -31.859375 C 2.054688 -31.816406 2.191406 -30.671875 2.191406 -29.351562 L 2.191406 -17.574219 L 0.363281 -16.523438 C 0.136719 -16.386719 0 -16.160156 0 -15.882812 C 0 -15.566406 0.136719 -15.382812 0.363281 -15.246094 L 2.191406 -14.195312 L 2.191406 -2.554688 C 2.191406 -1.050781 2.054688 -0.0898438 3.148438 0.046875 C 4.289062 0.136719 5.433594 0.136719 6.527344 0.046875 C 7.667969 -0.136719 7.578125 -1.230469 7.578125 -2.511719 L 7.578125 -10.269531 C 7.578125 -11.046875 7.667969 -11.59375 7.804688 -11.867188 C 7.851562 -12.050781 8.308594 -12.234375 8.488281 -11.867188 C 8.71875 -11.367188 8.855469 -11 8.945312 -10.726562 C 9.21875 -9.539062 9.632812 -7.898438 10.085938 -5.796875 C 10.269531 -5.15625 10.953125 -2.28125 11.230469 -1.09375 C 11.410156 -0.226562 11.683594 0 12.597656 0.046875 C 13.875 0.136719 15.292969 0.0898438 15.65625 -0.226562 C 15.839844 -0.410156 16.019531 -0.777344 16.160156 -1.277344 C 16.339844 -2.101562 16.613281 -3.242188 16.933594 -4.792969 L 17.894531 -9.539062 C 18.03125 -10.222656 18.210938 -10.679688 18.394531 -10.910156 C 18.484375 -11 18.578125 -11.046875 18.714844 -11.046875 C 18.851562 -11.046875 18.941406 -11 18.988281 -10.863281 C 19.261719 -10.179688 19.445312 -9.3125 19.445312 -8.214844 L 19.445312 -2.28125 C 19.445312 -1.140625 19.351562 -0.0898438 20.265625 0 C 21.5 0.136719 22.683594 0.136719 23.871094 0 C 24.921875 -0.136719 24.832031 -1.324219 24.832031 -2.601562 L 24.832031 -14.195312 L 26.65625 -15.246094 C 26.886719 -15.382812 27.023438 -15.566406 27.023438 -15.882812 C 27.023438 -16.160156 26.886719 -16.386719 26.65625 -16.523438 Z M 26.65625 -16.523438 "/></g></g></g><g fill="#e3d9ca" fill-opacity="1"><g transform="translate(106.778438, 67.80547)"><g><path d="M 16.523438 -4.425781 C 16.386719 -5.476562 15.472656 -5.339844 14.105469 -5.386719 L 9.632812 -5.386719 C 8.125 -5.433594 7.714844 -5.886719 7.621094 -7.347656 C 7.578125 -8.765625 7.578125 -9.996094 7.667969 -11.089844 C 7.757812 -13.054688 8.214844 -13.28125 9.949219 -13.28125 C 11.273438 -13.28125 12.324219 -13.28125 13.007812 -13.328125 C 13.648438 -13.375 14.011719 -13.695312 14.011719 -14.332031 C 14.105469 -15.292969 14.105469 -16.25 14.058594 -17.207031 C 14.011719 -18.304688 13.738281 -18.625 12.644531 -18.625 C 12.324219 -18.667969 11.777344 -18.667969 11.046875 -18.667969 C 9.632812 -18.667969 8.625 -18.625 8.078125 -19.125 C 7.851562 -19.398438 7.667969 -19.855469 7.667969 -20.449219 C 7.578125 -21.910156 7.578125 -23.414062 7.621094 -24.96875 C 7.714844 -26.382812 8.125 -26.839844 9.632812 -26.886719 L 14.148438 -26.886719 C 15.472656 -26.886719 16.433594 -26.792969 16.523438 -27.890625 C 16.613281 -28.9375 16.660156 -31.222656 16.25 -31.632812 C 16.019531 -31.816406 15.429688 -31.953125 14.378906 -31.953125 L 4.519531 -31.953125 C 2.28125 -31.953125 2.238281 -31.859375 2.238281 -29.578125 L 2.238281 -17.664062 L 0.410156 -16.613281 C 0.183594 -16.476562 0.046875 -16.25 0.046875 -15.976562 C 0.046875 -15.65625 0.183594 -15.472656 0.410156 -15.335938 L 2.238281 -14.285156 L 2.238281 -3.011719 C 2.238281 -1.324219 2.191406 -0.730469 2.601562 -0.363281 C 3.011719 0 3.789062 0 4.425781 0 L 14.332031 0 C 15.292969 0 16.386719 0.0898438 16.476562 -1.003906 C 16.613281 -2.101562 16.613281 -3.242188 16.523438 -4.425781 Z M 16.523438 -4.425781 "/></g></g></g><g fill="#e3d9ca" fill-opacity="1"><g transform="translate(128.549111, 67.80547)"><g><path d="M 18.851562 -31.90625 C 17.847656 -31.953125 16.523438 -31.953125 14.878906 -31.953125 C 14.378906 -31.90625 14.011719 -31.632812 13.832031 -31.128906 C 13.511719 -30.308594 13.007812 -28.710938 12.234375 -26.246094 C 11.914062 -25.289062 11.683594 -24.558594 11.457031 -23.917969 C 11.367188 -23.554688 11.183594 -23.371094 10.863281 -23.371094 C 10.363281 -23.371094 10.085938 -24.144531 9.90625 -24.738281 C 9.632812 -25.515625 9.082031 -27.296875 8.945312 -27.84375 C 8.535156 -29.121094 8.171875 -30.171875 7.898438 -30.902344 C 7.714844 -31.496094 7.394531 -31.816406 6.984375 -31.90625 C 5.570312 -32.089844 4.0625 -32.089844 2.511719 -31.90625 C 2.144531 -31.859375 1.871094 -31.449219 1.960938 -31.085938 C 2.101562 -30.582031 2.238281 -30.078125 2.417969 -29.53125 L 5.933594 -19.351562 C 6.117188 -18.851562 6.480469 -17.894531 6.9375 -16.570312 L 5.933594 -15.929688 C 5.660156 -15.792969 5.570312 -15.609375 5.570312 -15.292969 C 5.570312 -15.015625 5.660156 -14.789062 5.933594 -14.652344 L 7.898438 -13.464844 C 8.171875 -12.414062 8.261719 -11.457031 8.214844 -10.542969 L 8.214844 -3.742188 C 8.214844 -2.328125 8.261719 -1.507812 8.261719 -1.1875 C 8.351562 -0.320312 8.625 -0.046875 9.496094 0 L 11.136719 0 C 13.601562 0 13.601562 0 13.601562 -2.511719 C 13.648438 -4.199219 13.648438 -7.347656 13.601562 -12.003906 C 13.601562 -12.550781 13.648438 -13.054688 13.738281 -13.511719 L 15.703125 -14.652344 C 15.976562 -14.789062 16.066406 -15.015625 16.066406 -15.292969 C 16.066406 -15.609375 15.976562 -15.792969 15.703125 -15.929688 L 14.742188 -16.523438 C 15.976562 -20.082031 17.574219 -24.558594 19.398438 -29.941406 C 19.671875 -30.671875 19.808594 -31.175781 19.535156 -31.585938 C 19.351562 -31.816406 19.125 -31.90625 18.851562 -31.90625 Z M 18.851562 -31.90625 "/></g></g></g><g fill="#e3d9ca" fill-opacity="1"><g transform="translate(153.058161, 67.80547)"><g><path d="M 18.851562 -31.90625 C 17.847656 -31.953125 16.523438 -31.953125 14.878906 -31.953125 C 14.378906 -31.90625 14.011719 -31.632812 13.832031 -31.128906 C 13.511719 -30.308594 13.007812 -28.710938 12.234375 -26.246094 C 11.914062 -25.289062 11.683594 -24.558594 11.457031 -23.917969 C 11.367188 -23.554688 11.183594 -23.371094 10.863281 -23.371094 C 10.363281 -23.371094 10.085938 -24.144531 9.90625 -24.738281 C 9.632812 -25.515625 9.082031 -27.296875 8.945312 -27.84375 C 8.535156 -29.121094 8.171875 -30.171875 7.898438 -30.902344 C 7.714844 -31.496094 7.394531 -31.816406 6.984375 -31.90625 C 5.570312 -32.089844 4.0625 -32.089844 2.511719 -31.90625 C 2.144531 -31.859375 1.871094 -31.449219 1.960938 -31.085938 C 2.101562 -30.582031 2.238281 -30.078125 2.417969 -29.53125 L 5.933594 -19.351562 C 6.117188 -18.851562 6.480469 -17.894531 6.9375 -16.570312 L 5.933594 -15.929688 C 5.660156 -15.792969 5.570312 -15.609375 5.570312 -15.292969 C 5.570312 -15.015625 5.660156 -14.789062 5.933594 -14.652344 L 7.898438 -13.464844 C 8.171875 -12.414062 8.261719 -11.457031 8.214844 -10.542969 L 8.214844 -3.742188 C 8.214844 -2.328125 8.261719 -1.507812 8.261719 -1.1875 C 8.351562 -0.320312 8.625 -0.046875 9.496094 0 L 11.136719 0 C 13.601562 0 13.601562 0 13.601562 -2.511719 C 13.648438 -4.199219 13.648438 -7.347656 13.601562 -12.003906 C 13.601562 -12.550781 13.648438 -13.054688 13.738281 -13.511719 L 15.703125 -14.652344 C 15.976562 -14.789062 16.066406 -15.015625 16.066406 -15.292969 C 16.066406 -15.609375 15.976562 -15.792969 15.703125 -15.929688 L 14.742188 -16.523438 C 15.976562 -20.082031 17.574219 -24.558594 19.398438 -29.941406 C 19.671875 -30.671875 19.808594 -31.175781 19.535156 -31.585938 C 19.351562 -31.816406 19.125 -31.90625 18.851562 -31.90625 Z M 18.851562 -31.90625 "/></g></g></g><g fill="#e3d9ca" fill-opacity="1"><g transform="translate(177.567212, 67.80547)"><g><path d="M 16.523438 -4.425781 C 16.386719 -5.476562 15.472656 -5.339844 14.105469 -5.386719 L 9.632812 -5.386719 C 8.125 -5.433594 7.714844 -5.886719 7.621094 -7.347656 C 7.578125 -8.765625 7.578125 -9.996094 7.667969 -11.089844 C 7.757812 -13.054688 8.214844 -13.28125 9.949219 -13.28125 C 11.273438 -13.28125 12.324219 -13.28125 13.007812 -13.328125 C 13.648438 -13.375 14.011719 -13.695312 14.011719 -14.332031 C 14.105469 -15.292969 14.105469 -16.25 14.058594 -17.207031 C 14.011719 -18.304688 13.738281 -18.625 12.644531 -18.625 C 12.324219 -18.667969 11.777344 -18.667969 11.046875 -18.667969 C 9.632812 -18.667969 8.625 -18.625 8.078125 -19.125 C 7.851562 -19.398438 7.667969 -19.855469 7.667969 -20.449219 C 7.578125 -21.910156 7.578125 -23.414062 7.621094 -24.96875 C 7.714844 -26.382812 8.125 -26.839844 9.632812 -26.886719 L 14.148438 -26.886719 C 15.472656 -26.886719 16.433594 -26.792969 16.523438 -27.890625 C 16.613281 -28.9375 16.660156 -31.222656 16.25 -31.632812 C 16.019531 -31.816406 15.429688 -31.953125 14.378906 -31.953125 L 4.519531 -31.953125 C 2.28125 -31.953125 2.238281 -31.859375 2.238281 -29.578125 L 2.238281 -17.664062 L 0.410156 -16.613281 C 0.183594 -16.476562 0.046875 -16.25 0.046875 -15.976562 C 0.046875 -15.65625 0.183594 -15.472656 0.410156 -15.335938 L 2.238281 -14.285156 L 2.238281 -3.011719 C 2.238281 -1.324219 2.191406 -0.730469 2.601562 -0.363281 C 3.011719 0 3.789062 0 4.425781 0 L 14.332031 0 C 15.292969 0 16.386719 0.0898438 16.476562 -1.003906 C 16.613281 -2.101562 16.613281 -3.242188 16.523438 -4.425781 Z M 16.523438 -4.425781 "/></g></g></g><path stroke-linecap="butt" transform="matrix(0.767658, 0, 0, 0.767658, 25.118228, 25.869865)" fill="none" stroke-linejoin="miter" d="M 19.380844 32.140737 C 18.32243 30.894048 17.66601 30.29869 16.592331 29.342047 L 17.243663 28.161509 C 17.66601 27.494912 17.187689 26.726544 16.404056 26.726544 L 13.559569 26.726544 C 13.137221 26.248223 12.307791 25.418793 12.134782 25.189809 C 10.348708 23.154398 9.641403 21.022305 9.931449 18.757911 C 10.348708 15.435103 13.981917 14.778683 15.401616 17.928481 L 15.996974 19.470305 C 16.231046 20.136902 16.709367 20.426948 17.421761 20.426948 C 18.84146 20.426948 20.393461 20.136902 22.006524 19.597518 C 22.586616 19.353269 22.891928 19.00216 22.774892 18.294855 C 22.179534 13.297921 18.246103 7.461381 9.509102 9.669802 C 5.702883 10.611179 2.802423 13.954341 2.441137 18.584901 C 2.135826 22.559041 3.453754 26.18716 6.298241 29.280985 L 7.967278 30.950022 L 7.010635 32.619059 C 6.664615 33.275479 7.142936 34.09982 7.911304 34.043846 L 11.122165 34.043846 L 11.65646 34.578142 C 14.750284 37.72794 15.996974 38.267324 15.941 41.76823 C 15.941 43.376205 14.750284 44.928206 13.325497 45.279314 C 11.82947 45.640599 10.638755 44.989268 9.697377 43.320231 C 9.392065 42.724873 9.275029 42.3585 9.102019 41.651194 C 9.046046 41.244112 8.913744 40.994774 8.913744 40.882827 C 8.562635 39.631049 8.145376 39.269764 6.954661 39.341003 C 6.298241 39.341003 4.934516 39.514013 2.975433 39.804059 C 1.728744 39.992334 1.901754 41.473096 2.01879 42.3585 C 2.324101 44.332848 3.148443 46.408967 4.57323 48.617388 C 5.051552 49.329782 5.819919 49.981113 6.837625 50.637533 C 8.506662 51.634884 10.465745 52.118294 12.730139 52.001258 C 16.765341 51.767186 17.900083 52.174268 20.571559 49.02447 C 21.874222 47.487735 22.718918 45.757636 22.95299 43.854526 C 23.548348 39.514013 22.413606 35.595847 19.380844 32.140737 Z M 55.417793 30.415726 L 53.036362 29.046913 L 53.036362 13.64903 C 53.036362 12.035967 53.153398 10.555205 51.845647 10.438169 C 51.021305 10.382195 50.059574 10.382195 49.046957 10.382195 C 46.085434 10.382195 46.024372 10.438169 46.024372 13.358984 L 46.024372 39.631049 C 46.024372 42.3585 45.602024 44.989268 42.935636 45.452324 C 40.783189 45.757636 39.592474 43.549215 39.5365 42.01248 C 39.480526 41.361148 39.480526 40.587692 39.480526 39.692111 L 39.480526 14.127351 C 39.480526 11.91893 39.70951 10.555205 38.111712 10.438169 C 36.920997 10.321133 33.526949 10.265159 32.875618 10.860517 C 32.580483 11.150563 32.468536 12.035967 32.468536 13.470931 L 32.468536 29.046913 L 30.087105 30.415726 C 29.720731 30.588736 29.547721 30.832986 29.547721 31.240068 C 29.547721 31.606442 29.720731 31.906665 30.087105 32.084763 L 32.468536 33.448489 L 32.468536 41.11181 C 32.468536 42.490801 32.697519 44.205635 33.175841 46.235957 C 33.409913 47.065387 33.832261 47.833755 34.310583 48.546148 C 37.516355 52.713652 42.396252 53.537994 47.388097 51.828248 C 47.739206 51.711212 48.100491 51.522937 48.390537 51.232891 C 51.555601 48.734424 53.153398 45.757636 53.036362 42.246552 C 53.036362 40.226407 52.980388 36.715323 52.980388 33.504462 L 55.417793 32.084763 C 55.763813 31.906665 55.896114 31.606442 55.896114 31.240068 C 55.896114 30.832986 55.763813 30.588736 55.417793 30.415726 Z M 96.970705 30.4717 L 94.589274 29.107975 L 94.589274 13.705003 C 94.589274 11.979993 94.838612 10.555205 93.225549 10.499231 C 91.383502 10.438169 89.119108 10.438169 86.447631 10.499231 C 84.661558 10.499231 84.834568 11.745921 84.371512 14.417397 C 84.127263 15.491077 84.010227 16.320506 83.89319 16.971838 C 83.470843 18.885124 83.007787 21.500627 82.412429 24.650425 L 80.977464 32.374809 C 80.977464 32.619059 80.916402 32.736095 80.860428 32.853131 C 80.438081 33.809774 79.608651 33.682561 79.379667 32.970167 C 79.130329 32.257773 78.957319 31.718389 78.901345 31.428343 L 75.807521 15.796388 L 74.978091 11.684858 C 74.789816 10.916491 74.311494 10.499231 73.660163 10.499231 L 66.4141 10.499231 C 64.918073 10.555205 65.106348 12.035967 65.106348 13.760977 L 65.106348 29.107975 L 62.730006 30.4717 C 62.424695 30.659976 62.246596 30.950022 62.246596 31.311307 C 62.246596 31.718389 62.424695 31.967727 62.730006 32.140737 L 65.106348 33.504462 L 65.106348 48.673362 C 65.106348 50.637533 64.918073 51.884222 66.358126 52.057232 C 67.838888 52.174268 69.319649 52.174268 70.754614 52.057232 C 72.235375 51.828248 72.118339 50.388195 72.118339 48.734424 L 72.118339 38.613344 C 72.118339 37.615992 72.235375 36.903598 72.408385 36.542313 C 72.484713 36.308241 73.064805 36.058903 73.309054 36.542313 C 73.5991 37.193645 73.787376 37.671966 73.904412 38.017986 C 74.25552 39.575075 74.789816 41.707168 75.385173 44.449884 C 75.634511 45.279314 76.519915 49.02447 76.8812 50.576471 C 77.115272 51.711212 77.476558 52.001258 78.652008 52.057232 C 80.321044 52.174268 82.163091 52.118294 82.646501 51.711212 C 82.875485 51.461874 83.124823 50.983553 83.297833 50.332221 C 83.531905 49.268719 83.89319 47.777781 84.315538 45.757636 L 85.562227 39.575075 C 85.735237 38.674406 85.96931 38.094314 86.213559 37.789002 C 86.330595 37.671966 86.447631 37.615992 86.620641 37.615992 C 86.808916 37.615992 86.925953 37.671966 86.987015 37.844976 C 87.3483 38.745645 87.582373 39.865121 87.582373 41.300086 L 87.582373 49.02447 C 87.582373 50.520497 87.465336 51.884222 88.656052 52.001258 C 90.253849 52.174268 91.80585 52.174268 93.342585 52.001258 C 94.706311 51.828248 94.589274 50.271159 94.589274 48.617388 L 94.589274 33.504462 L 96.970705 32.140737 C 97.276017 31.967727 97.454115 31.718389 97.454115 31.311307 C 97.454115 30.950022 97.276017 30.659976 96.970705 30.4717 Z M 125.278181 46.235957 C 125.084817 44.856966 123.909367 45.045242 122.123294 44.989268 L 116.291842 44.989268 C 114.33276 44.928206 113.793376 44.332848 113.67634 42.434827 C 113.620366 40.587692 113.620366 38.979718 113.737402 37.55493 C 113.849349 35.000489 114.444707 34.695178 116.709102 34.695178 C 118.439201 34.695178 119.802926 34.695178 120.68833 34.639204 C 121.533025 34.578142 121.996081 34.160882 121.996081 33.331452 C 122.123294 32.084763 122.123294 30.832986 122.067321 29.586297 C 121.996081 28.161509 121.644973 27.74425 120.225274 27.74425 C 119.802926 27.683187 119.090532 27.683187 118.133889 27.683187 C 116.291842 27.683187 114.984091 27.74425 114.271697 27.08783 C 113.981651 26.726544 113.737402 26.131187 113.737402 25.362819 C 113.620366 23.45971 113.620366 21.500627 113.67634 19.470305 C 113.793376 17.638435 114.33276 17.043077 116.291842 16.971838 L 122.184357 16.971838 C 123.909367 16.971838 125.161145 17.10414 125.278181 15.664086 C 125.390129 14.300361 125.451191 11.323573 124.911807 10.789277 C 124.621761 10.555205 123.838128 10.382195 122.474403 10.382195 L 109.641138 10.382195 C 106.725412 10.382195 106.664349 10.499231 106.664349 13.470931 L 106.664349 28.990939 L 104.282919 30.354664 C 103.977607 30.527674 103.804597 30.832986 103.804597 31.184094 C 103.804597 31.606442 103.977607 31.835426 104.282919 32.023701 L 106.664349 33.387426 L 106.664349 48.078004 C 106.664349 50.271159 106.608375 51.039527 107.132494 51.522937 C 107.666789 52.001258 108.684494 52.001258 109.508836 52.001258 L 122.418429 52.001258 C 123.665118 52.001258 125.084817 52.118294 125.217119 50.693507 C 125.390129 49.268719 125.390129 47.777781 125.278181 46.235957 Z M 156.669305 10.438169 C 155.361553 10.382195 153.636543 10.382195 151.489184 10.382195 C 150.832764 10.438169 150.354443 10.789277 150.120371 11.455875 C 149.703111 12.514288 149.046691 14.605673 148.04934 17.811445 C 147.626992 19.063223 147.336946 20.0046 147.031635 20.849296 C 146.914598 21.312351 146.680526 21.556601 146.263267 21.556601 C 145.606847 21.556601 145.245562 20.543984 145.011489 19.775616 C 144.650204 18.757911 143.93781 16.44772 143.7648 15.725149 C 143.225416 14.066289 142.747095 12.702564 142.401075 11.745921 C 142.151737 10.977553 141.744655 10.555205 141.21036 10.438169 C 139.368313 10.209185 137.404141 10.209185 135.373819 10.438169 C 134.910763 10.499231 134.544389 11.033527 134.661425 11.511848 C 134.834435 12.168268 135.027799 12.8196 135.256783 13.531994 L 139.831369 26.782518 C 140.075618 27.438938 140.55394 28.685627 141.149297 30.415726 L 139.831369 31.240068 C 139.48026 31.428343 139.368313 31.662416 139.368313 32.084763 C 139.368313 32.430783 139.48026 32.736095 139.831369 32.909105 L 142.401075 34.466194 C 142.747095 35.829919 142.864131 37.076608 142.808157 38.267324 L 142.808157 47.121361 C 142.808157 48.968496 142.864131 50.042175 142.864131 50.459435 C 142.996433 51.578911 143.342452 51.940196 144.477194 52.001258 L 146.609287 52.001258 C 149.830324 52.001258 149.830324 52.001258 149.830324 48.734424 C 149.891387 46.526003 149.891387 42.434827 149.830324 36.364215 C 149.830324 35.651821 149.891387 35.000489 150.008423 34.405132 L 152.562864 32.909105 C 152.924149 32.736095 153.041185 32.430783 153.041185 32.084763 C 153.041185 31.662416 152.924149 31.428343 152.562864 31.240068 L 151.311086 30.4717 C 152.924149 25.841141 155.000268 20.0046 157.381699 12.99261 C 157.727719 12.035967 157.915994 11.384635 157.554709 10.860517 C 157.320636 10.555205 157.020413 10.438169 156.669305 10.438169 Z M 188.594724 10.438169 C 187.292061 10.382195 185.561962 10.382195 183.414603 10.382195 C 182.763272 10.438169 182.279862 10.789277 182.050878 11.455875 C 181.62853 12.514288 180.977199 14.605673 179.974759 17.811445 C 179.552411 19.063223 179.262365 20.0046 178.957054 20.849296 C 178.840017 21.312351 178.611034 21.556601 178.188686 21.556601 C 177.537354 21.556601 177.170981 20.543984 176.941997 19.775616 C 176.575623 18.757911 175.863229 16.44772 175.690219 15.725149 C 175.155924 14.066289 174.677602 12.702564 174.326494 11.745921 C 174.082245 10.977553 173.675162 10.555205 173.135779 10.438169 C 171.293732 10.209185 169.334649 10.209185 167.299238 10.438169 C 166.836182 10.499231 166.474897 11.033527 166.591933 11.511848 C 166.764943 12.168268 166.953218 12.8196 167.18729 13.531994 L 171.756788 26.782518 C 172.006126 27.438938 172.484447 28.685627 173.079805 30.415726 L 171.756788 31.240068 C 171.410768 31.428343 171.293732 31.662416 171.293732 32.084763 C 171.293732 32.430783 171.410768 32.736095 171.756788 32.909105 L 174.326494 34.466194 C 174.677602 35.829919 174.78955 37.076608 174.733576 38.267324 L 174.733576 47.121361 C 174.733576 48.968496 174.78955 50.042175 174.78955 50.459435 C 174.921852 51.578911 175.27296 51.940196 176.402613 52.001258 L 178.534706 52.001258 C 181.760832 52.001258 181.760832 52.001258 181.760832 48.734424 C 181.816806 46.526003 181.816806 42.434827 181.760832 36.364215 C 181.760832 35.651821 181.816806 35.000489 181.933842 34.405132 L 184.488282 32.909105 C 184.849568 32.736095 184.966604 32.430783 184.966604 32.084763 C 184.966604 31.662416 184.849568 31.428343 184.488282 31.240068 L 183.241593 30.4717 C 184.849568 25.841141 186.925687 20.0046 189.307118 12.99261 C 189.658226 12.035967 189.846501 11.384635 189.480128 10.860517 C 189.251144 10.555205 188.945832 10.438169 188.594724 10.438169 Z M 217.487381 46.235957 C 217.299105 44.856966 216.123655 45.045242 214.337582 44.989268 L 208.50613 44.989268 C 206.541959 44.928206 206.007664 44.332848 205.890627 42.434827 C 205.834654 40.587692 205.834654 38.979718 205.946601 37.55493 C 206.063637 35.000489 206.658995 34.695178 208.92339 34.695178 C 210.653489 34.695178 212.017214 34.695178 212.902618 34.639204 C 213.742225 34.578142 214.210369 34.160882 214.210369 33.331452 C 214.337582 32.084763 214.337582 30.832986 214.281609 29.586297 C 214.210369 28.161509 213.859261 27.74425 212.439562 27.74425 C 212.017214 27.683187 211.30482 27.683187 210.348177 27.683187 C 208.50613 27.683187 207.198379 27.74425 206.485985 27.08783 C 206.195939 26.726544 205.946601 26.131187 205.946601 25.362819 C 205.834654 23.45971 205.834654 21.500627 205.890627 19.470305 C 206.007664 17.638435 206.541959 17.043077 208.50613 16.971838 L 214.398645 16.971838 C 216.123655 16.971838 217.375433 17.10414 217.487381 15.664086 C 217.604417 14.300361 217.665479 11.323573 217.126095 10.789277 C 216.836049 10.555205 216.052416 10.382195 214.688691 10.382195 L 201.855425 10.382195 C 198.939699 10.382195 198.878637 10.499231 198.878637 13.470931 L 198.878637 28.990939 L 196.497206 30.354664 C 196.191895 30.527674 196.018885 30.832986 196.018885 31.184094 C 196.018885 31.606442 196.191895 31.835426 196.497206 32.023701 L 198.878637 33.387426 L 198.878637 48.078004 C 198.878637 50.271159 198.822663 51.039527 199.341693 51.522937 C 199.881077 52.001258 200.898782 52.001258 201.723124 52.001258 L 214.627628 52.001258 C 215.879406 52.001258 217.299105 52.118294 217.431407 50.693507 C 217.604417 49.268719 217.604417 47.777781 217.487381 46.235957 Z M 217.487381 46.235957 " stroke="#74247b" stroke-width="2.229896" stroke-opacity="1" stroke-miterlimit="4"/><g fill="#e3d9ca" fill-opacity="1"><g transform="translate(45.307513, 116.935601)"><g><path d="M 18.714844 -10.042969 C 18.761719 -12.324219 18.121094 -14.285156 16.75 -15.839844 C 16.019531 -16.707031 16.019531 -17.070312 16.660156 -17.9375 C 19.445312 -21.636719 18.484375 -27.796875 15.519531 -30.355469 C 14.058594 -31.585938 12.324219 -32.179688 10.179688 -32.132812 C 9.449219 -32.089844 8.488281 -32.089844 7.304688 -32.089844 C 3.835938 -32.132812 2.828125 -32.226562 2.375 -31.769531 C 2.191406 -31.585938 2.101562 -30.902344 2.101562 -29.804688 L 2.101562 -17.757812 L 0.273438 -16.707031 C 0 -16.523438 -0.0898438 -16.339844 -0.0898438 -16.019531 C -0.0898438 -15.746094 0 -15.566406 0.273438 -15.382812 L 2.101562 -14.332031 L 2.101562 -2.921875 C 2.101562 -1.414062 2.101562 -0.730469 2.417969 -0.363281 C 2.648438 -0.136719 3.011719 0 3.515625 0 C 12.1875 0.0898438 14.242188 0.503906 16.886719 -2.648438 C 18.121094 -4.109375 18.714844 -5.707031 18.667969 -7.53125 C 18.667969 -8.582031 18.667969 -9.449219 18.714844 -10.042969 Z M 7.941406 -25.242188 C 8.125 -26.382812 8.671875 -26.746094 9.859375 -26.65625 C 11.089844 -26.566406 11.867188 -25.878906 12.234375 -24.738281 L 12.507812 -23.371094 C 12.507812 -22.367188 12.277344 -21.40625 11.820312 -20.585938 C 11.546875 -20.128906 11.136719 -19.808594 10.542969 -19.628906 C 7.347656 -18.578125 7.621094 -23.003906 7.941406 -25.242188 Z M 12.1875 -6.890625 C 11.640625 -5.886719 10.679688 -5.433594 9.265625 -5.476562 C 7.667969 -5.570312 7.898438 -6.253906 7.898438 -9.632812 C 7.898438 -12.734375 7.714844 -13.328125 8.945312 -13.96875 C 10.222656 -14.5625 12.003906 -13.511719 12.507812 -12.097656 C 13.191406 -10.269531 13.054688 -8.535156 12.1875 -6.890625 Z M 12.1875 -6.890625 "/></g></g></g><g fill="#e3d9ca" fill-opacity="1"><g transform="translate(68.903773, 116.935601)"><g><path d="M 19.808594 -16.613281 L 17.984375 -17.664062 L 17.984375 -23.734375 C 17.984375 -26.15625 17.390625 -28.757812 15.472656 -30.535156 C 13.554688 -32.363281 11.273438 -32.863281 7.667969 -32.316406 C 7.074219 -32.226562 6.574219 -31.996094 6.023438 -31.585938 C 3.378906 -29.667969 2.101562 -27.386719 2.191406 -24.695312 C 2.191406 -23.414062 2.238281 -20.996094 2.191406 -17.664062 L 0.363281 -16.613281 C 0.0898438 -16.433594 0 -16.25 0 -15.929688 C 0 -15.65625 0.0898438 -15.472656 0.363281 -15.292969 L 2.191406 -14.242188 L 2.191406 -7.578125 C 2.191406 -6.117188 2.417969 -4.929688 2.96875 -3.925781 C 5.886719 1.550781 13.464844 1.917969 17.070312 -3.878906 C 17.300781 -4.289062 17.480469 -4.65625 17.527344 -5.066406 C 17.894531 -6.9375 18.03125 -8.125 18.03125 -8.625 L 17.984375 -14.242188 L 19.808594 -15.292969 C 20.082031 -15.472656 20.175781 -15.65625 20.175781 -15.929688 C 20.175781 -16.25 20.082031 -16.476562 19.808594 -16.613281 Z M 12.003906 -6.753906 C 11.183594 -4.929688 8.535156 -4.976562 7.804688 -6.847656 C 7.621094 -7.210938 7.578125 -7.898438 7.578125 -8.808594 L 7.578125 -23.691406 C 7.578125 -24.421875 7.578125 -24.875 7.621094 -25.148438 C 7.941406 -27.476562 11.320312 -27.753906 12.050781 -25.515625 C 12.1875 -25.058594 12.277344 -24.558594 12.277344 -23.917969 L 12.277344 -8.488281 C 12.277344 -7.757812 12.1875 -7.167969 12.003906 -6.753906 Z M 12.003906 -6.753906 "/></g></g></g><g fill="#e3d9ca" fill-opacity="1"><g transform="translate(93.960497, 116.935601)"><g><path d="M 14.972656 -5.019531 L 13.007812 -5.019531 C 10.816406 -5.019531 9.859375 -5.019531 9.21875 -5.15625 C 7.394531 -5.433594 8.214844 -6.753906 8.582031 -7.667969 C 9.039062 -8.902344 10.085938 -11.546875 11.183594 -14.332031 L 12.871094 -15.292969 C 13.101562 -15.472656 13.238281 -15.65625 13.238281 -15.976562 C 13.238281 -16.25 13.101562 -16.433594 12.871094 -16.613281 L 12.234375 -16.980469 C 13.554688 -20.359375 14.46875 -22.503906 15.335938 -24.695312 C 16.019531 -26.335938 16.339844 -28.027344 16.25 -29.804688 C 16.160156 -31.859375 15.976562 -32.042969 13.921875 -32.042969 L 3.835938 -32.042969 C 2.785156 -32.042969 1.644531 -32.179688 1.550781 -30.949219 C 1.507812 -29.898438 1.507812 -28.800781 1.550781 -27.707031 C 1.597656 -26.519531 2.691406 -26.65625 3.652344 -26.65625 L 7.074219 -26.65625 C 8.351562 -26.65625 10.042969 -26.746094 9.496094 -25.011719 L 9.21875 -24.375 L 6.527344 -17.574219 L 4.839844 -16.613281 C 4.609375 -16.433594 4.472656 -16.25 4.472656 -15.976562 C 4.472656 -15.65625 4.609375 -15.472656 4.839844 -15.292969 L 5.476562 -14.925781 L 1.917969 -5.980469 C 1.550781 -5.066406 1.460938 -3.332031 1.597656 -0.820312 C 1.644531 0.0898438 2.738281 0 3.695312 0 L 13.601562 0 C 15.0625 0 15.566406 0 15.882812 -0.320312 C 16.066406 -0.457031 16.160156 -0.730469 16.203125 -1.09375 C 16.25 -2.007812 16.25 -2.921875 16.203125 -3.789062 C 16.160156 -4.703125 15.839844 -4.976562 14.972656 -5.019531 Z M 14.972656 -5.019531 "/></g></g></g><g fill="#e3d9ca" fill-opacity="1"><g transform="translate(115.046583, 116.935601)"><g><path d="M 19.125 -0.914062 C 19.035156 -1.324219 18.898438 -1.734375 18.714844 -2.144531 C 16.84375 -6.710938 15.109375 -11.046875 13.464844 -15.109375 C 13.007812 -16.25 12.597656 -17.164062 12.277344 -17.894531 C 11.957031 -18.578125 11.957031 -19.261719 12.324219 -19.992188 C 12.277344 -19.855469 12.460938 -20.222656 12.917969 -21.089844 C 15.246094 -25.742188 16.75 -28.710938 17.34375 -29.941406 C 17.574219 -30.398438 17.800781 -30.855469 17.9375 -31.222656 C 18.074219 -31.539062 17.894531 -31.859375 17.574219 -31.90625 C 16.296875 -32.042969 14.789062 -32.042969 13.101562 -31.90625 C 12.277344 -31.859375 12.050781 -31.085938 11.503906 -30.125 C 11.273438 -29.667969 10.953125 -28.9375 10.40625 -27.933594 C 9.949219 -27.023438 9.585938 -26.292969 9.3125 -25.789062 C 8.992188 -25.105469 8.671875 -24.648438 8.445312 -24.464844 C 8.078125 -24.191406 7.53125 -24.328125 7.441406 -24.738281 C 7.167969 -25.699219 7.210938 -26.519531 7.210938 -27.933594 L 7.210938 -29.761719 C 7.210938 -30.855469 7.304688 -31.859375 6.253906 -31.90625 C 5.203125 -31.953125 4.199219 -31.953125 3.195312 -31.90625 C 2.101562 -31.859375 2.191406 -30.808594 2.191406 -29.394531 L 2.191406 -17.710938 L 0.363281 -16.660156 C 0.136719 -16.476562 0 -16.296875 0 -15.976562 C 0 -15.703125 0.136719 -15.519531 0.363281 -15.335938 L 2.191406 -14.285156 L 2.191406 -2.828125 C 2.191406 -2.007812 2.191406 -1.460938 2.238281 -1.1875 C 2.28125 -0.363281 2.554688 -0.046875 3.332031 -0.046875 C 4.199219 0 5.113281 0 5.980469 0 C 6.847656 -0.0898438 7.121094 -0.363281 7.210938 -1.277344 L 7.210938 -4.335938 C 7.257812 -7.394531 7.257812 -8.902344 7.257812 -8.808594 C 7.257812 -9.632812 7.441406 -10.222656 7.804688 -10.679688 C 8.035156 -10.953125 8.535156 -10.953125 8.765625 -10.679688 C 8.992188 -10.40625 9.265625 -9.949219 9.539062 -9.265625 C 9.722656 -8.855469 10.363281 -7.210938 11.457031 -4.425781 C 12.097656 -2.785156 12.414062 -1.917969 12.460938 -1.734375 C 12.917969 -0.457031 13.785156 0.0898438 15.015625 0 L 16.296875 0 C 17.710938 0 17.894531 0 18.625 -0.0898438 C 18.988281 -0.183594 19.214844 -0.546875 19.125 -0.914062 Z M 19.125 -0.914062 "/></g></g></g><g fill="#e3d9ca" fill-opacity="1"><g transform="translate(139.007957, 116.935601)"><g><path d="M 19.855469 -16.570312 L 18.03125 -17.617188 L 18.03125 -29.441406 C 18.03125 -30.671875 18.121094 -31.816406 17.117188 -31.90625 C 16.476562 -31.953125 15.746094 -31.953125 14.972656 -31.953125 C 12.6875 -31.953125 12.644531 -31.90625 12.644531 -29.667969 L 12.644531 -9.496094 C 12.644531 -7.394531 12.324219 -5.386719 10.269531 -5.019531 C 8.625 -4.792969 7.714844 -6.480469 7.667969 -7.667969 C 7.621094 -8.171875 7.621094 -8.765625 7.621094 -9.449219 L 7.621094 -29.074219 C 7.621094 -30.765625 7.804688 -31.816406 6.574219 -31.90625 C 5.660156 -31.996094 3.058594 -32.042969 2.554688 -31.585938 C 2.328125 -31.359375 2.238281 -30.671875 2.238281 -29.578125 L 2.238281 -17.617188 L 0.410156 -16.570312 C 0.136719 -16.433594 0 -16.25 0 -15.929688 C 0 -15.65625 0.136719 -15.429688 0.410156 -15.292969 L 2.238281 -14.242188 L 2.238281 -8.351562 C 2.238281 -7.304688 2.417969 -5.980469 2.785156 -4.425781 C 2.96875 -3.789062 3.285156 -3.195312 3.652344 -2.648438 C 6.117188 0.546875 9.859375 1.1875 13.695312 -0.136719 C 13.96875 -0.226562 14.242188 -0.363281 14.46875 -0.59375 C 16.886719 -2.511719 18.121094 -4.792969 18.03125 -7.484375 C 18.03125 -9.039062 17.984375 -11.730469 17.984375 -14.195312 L 19.855469 -15.292969 C 20.128906 -15.429688 20.222656 -15.65625 20.222656 -15.929688 C 20.222656 -16.25 20.128906 -16.433594 19.855469 -16.570312 Z M 19.855469 -16.570312 "/></g></g></g><g fill="#e3d9ca" fill-opacity="1"><g transform="translate(164.110316, 116.935601)"><g><path d="M 14.878906 -15.246094 C 14.058594 -16.203125 13.554688 -16.660156 12.734375 -17.390625 L 13.238281 -18.304688 C 13.554688 -18.804688 13.191406 -19.398438 12.597656 -19.398438 L 10.40625 -19.398438 C 10.085938 -19.765625 9.449219 -20.402344 9.3125 -20.585938 C 7.941406 -22.136719 7.394531 -23.78125 7.621094 -25.515625 C 7.941406 -28.070312 10.726562 -28.574219 11.820312 -26.15625 L 12.277344 -24.96875 C 12.460938 -24.464844 12.828125 -24.238281 13.375 -24.238281 C 14.46875 -24.238281 15.65625 -24.464844 16.886719 -24.875 C 17.34375 -25.058594 17.574219 -25.332031 17.480469 -25.878906 C 17.027344 -29.714844 14.011719 -34.1875 7.304688 -32.5 C 4.382812 -31.769531 2.144531 -29.210938 1.871094 -25.652344 C 1.644531 -22.59375 2.648438 -19.808594 4.839844 -17.4375 L 6.117188 -16.160156 L 5.386719 -14.878906 C 5.113281 -14.378906 5.476562 -13.738281 6.070312 -13.785156 L 8.535156 -13.785156 L 8.945312 -13.375 C 11.320312 -10.953125 12.277344 -10.542969 12.234375 -7.851562 C 12.234375 -6.617188 11.320312 -5.433594 10.222656 -5.15625 C 9.082031 -4.882812 8.171875 -5.386719 7.441406 -6.664062 C 7.210938 -7.121094 7.121094 -7.394531 6.984375 -7.941406 C 6.9375 -8.261719 6.847656 -8.445312 6.847656 -8.535156 C 6.574219 -9.496094 6.253906 -9.769531 5.339844 -9.722656 C 4.839844 -9.722656 3.789062 -9.585938 2.28125 -9.355469 C 1.324219 -9.21875 1.460938 -8.078125 1.550781 -7.394531 C 1.78125 -5.886719 2.417969 -4.289062 3.515625 -2.601562 C 3.878906 -2.054688 4.472656 -1.550781 5.25 -1.050781 C 6.527344 -0.273438 8.035156 0.0898438 9.769531 0 C 12.871094 -0.183594 13.738281 0.136719 15.792969 -2.28125 C 16.796875 -3.46875 17.4375 -4.792969 17.617188 -6.253906 C 18.074219 -9.585938 17.207031 -12.597656 14.878906 -15.246094 Z M 14.878906 -15.246094 "/></g></g></g><path stroke-linecap="butt" transform="matrix(0.767658, 0, 0, 0.767658, 25.118228, 25.869865)" fill="none" stroke-linejoin="miter" d="M 48.044517 102.922149 C 48.105579 99.945361 47.27615 97.39092 45.490077 95.370775 C 44.548699 94.241122 44.548699 93.7628 45.37304 92.628059 C 49.00116 87.809223 47.754471 79.794793 43.892279 76.45672 C 41.994258 74.858922 39.724775 74.075289 36.926085 74.136351 C 35.979619 74.207591 34.73293 74.207591 33.18093 74.207591 C 28.667406 74.136351 27.359655 74.019315 26.764297 74.614673 C 26.530225 74.858922 26.403011 75.744326 26.403011 77.169113 L 26.403011 92.877396 L 24.036846 94.241122 C 23.670472 94.470105 23.553436 94.719443 23.553436 95.126525 C 23.553436 95.487811 23.670472 95.721883 24.036846 95.966132 L 26.403011 97.329858 L 26.403011 112.198534 C 26.403011 114.157617 26.403011 115.04302 26.820271 115.521342 C 27.125582 115.826654 27.593727 115.999664 28.245058 115.999664 C 39.551765 116.1167 42.223242 116.650995 45.678352 112.544554 C 47.27615 110.641444 48.044517 108.565325 47.988543 106.188983 C 47.988543 104.82017 47.988543 103.690516 48.044517 102.922149 Z M 34.020537 83.117601 C 34.254609 81.63684 34.967003 81.158519 36.519003 81.275555 C 38.116801 81.392591 39.134506 82.29326 39.612828 83.774021 L 39.958848 85.560094 C 39.958848 86.862757 39.668802 88.114535 39.073444 89.188214 C 38.712158 89.783572 38.172775 90.190654 37.404407 90.434903 C 33.236903 91.798629 33.603277 86.038416 34.020537 83.117601 Z M 39.551765 107.02859 C 38.829195 108.336342 37.577417 108.931699 35.73537 108.855371 C 33.659251 108.743424 33.964563 107.85802 33.964563 103.456444 C 33.964563 99.405977 33.715225 98.637609 35.328288 97.808179 C 36.997325 97.024546 39.307516 98.403537 39.958848 100.250672 C 40.859517 102.616837 40.671241 104.881232 39.551765 107.02859 Z M 80.219274 94.358158 L 77.837843 92.989344 L 77.837843 85.081773 C 77.837843 81.931975 77.069476 78.548104 74.571009 76.222647 C 72.077631 73.846305 69.100842 73.189885 64.399043 73.902279 C 63.625587 74.019315 62.974256 74.324627 62.261862 74.858922 C 58.806752 77.357389 57.137715 80.318912 57.270017 83.829995 C 57.270017 85.499032 57.325991 88.64883 57.270017 92.989344 L 54.888586 94.358158 C 54.527301 94.587142 54.410265 94.836479 54.410265 95.243562 C 54.410265 95.604847 54.527301 95.838919 54.888586 96.083168 L 57.270017 97.446894 L 57.270017 106.127921 C 57.270017 108.03103 57.560063 109.583031 58.272457 110.890782 C 62.073586 118.019809 71.945329 118.49813 76.647128 110.946756 C 76.937174 110.412461 77.186512 109.934139 77.242486 109.394755 C 77.725896 106.957351 77.898906 105.415527 77.898906 104.764196 L 77.837843 97.446894 L 80.219274 96.083168 C 80.570382 95.838919 80.687418 95.604847 80.687418 95.243562 C 80.687418 94.836479 80.570382 94.531168 80.219274 94.358158 Z M 70.04222 107.2016 C 68.983806 109.583031 65.528696 109.527057 64.572053 107.084564 C 64.337981 106.606243 64.282007 105.705573 64.282007 104.514858 L 64.282007 85.137747 C 64.282007 84.196369 64.282007 83.601012 64.337981 83.234638 C 64.760329 80.201875 69.156816 79.855856 70.103282 82.756316 C 70.291558 83.351674 70.408594 84.003005 70.408594 84.847701 L 70.408594 104.937206 C 70.408594 105.898937 70.291558 106.667305 70.04222 107.2016 Z M 106.547313 109.450729 L 103.992872 109.450729 C 101.148386 109.450729 99.896608 109.450729 99.057001 109.277719 C 96.690836 108.931699 97.74925 107.2016 98.227571 106.010885 C 98.822929 104.40291 100.186654 100.963066 101.626707 97.329858 L 103.814774 96.083168 C 104.120086 95.838919 104.298184 95.604847 104.298184 95.182499 C 104.298184 94.836479 104.120086 94.587142 103.814774 94.358158 L 102.990433 93.874748 C 104.715443 89.47826 105.890893 86.689747 107.025635 83.829995 C 107.926304 81.697902 108.333386 79.489482 108.21635 77.169113 C 108.099314 74.497637 107.865242 74.263564 105.183588 74.263564 L 92.045011 74.263564 C 90.681286 74.263564 89.185259 74.075289 89.068223 75.688352 C 89.012249 77.052077 89.012249 78.476865 89.068223 79.911829 C 89.124196 81.448565 90.564249 81.275555 91.810939 81.275555 L 96.268488 81.275555 C 97.937525 81.275555 100.13068 81.158519 99.418287 83.412736 L 99.057001 84.252343 L 95.556095 93.10638 L 93.352762 94.358158 C 93.062716 94.587142 92.869352 94.836479 92.869352 95.182499 C 92.869352 95.604847 93.062716 95.838919 93.352762 96.083168 L 94.192369 96.56149 L 89.546544 108.20404 C 89.068223 109.394755 88.951186 111.65915 89.124196 114.925984 C 89.185259 116.1167 90.620223 115.999664 91.872001 115.999664 L 104.776506 115.999664 C 106.674526 115.999664 107.330946 115.999664 107.738028 115.577316 C 107.982278 115.404306 108.099314 115.04302 108.155288 114.574876 C 108.21635 113.389249 108.21635 112.198534 108.155288 111.063792 C 108.099314 109.873077 107.676966 109.527057 106.547313 109.450729 Z M 139.429375 114.808948 C 139.312339 114.274653 139.139329 113.735269 138.889991 113.195885 C 136.452587 107.262663 134.203458 101.614397 132.056099 96.317241 C 131.460742 94.836479 130.921358 93.645764 130.514276 92.684032 C 130.097016 91.798629 130.097016 90.903048 130.575338 89.956582 C 130.514276 90.129592 130.748348 89.65127 131.343706 88.536883 C 134.376468 82.46627 136.335551 78.604078 137.103918 76.996103 C 137.40923 76.400746 137.699276 75.805388 137.89264 75.321978 C 138.06565 74.919984 137.831578 74.497637 137.40923 74.436574 C 135.740193 74.263564 133.78111 74.263564 131.587955 74.436574 C 130.514276 74.497637 130.208964 75.515342 129.501659 76.762031 C 129.211613 77.357389 128.789265 78.298766 128.076871 79.606518 C 127.481514 80.797233 127.003192 81.753876 126.652084 82.410296 C 126.234824 83.2957 125.812477 83.891058 125.522431 84.135307 C 125.044109 84.486415 124.331715 84.308317 124.214679 83.774021 C 123.853394 82.522244 123.909367 81.448565 123.909367 79.606518 L 123.909367 77.225087 C 123.909367 75.805388 124.026404 74.497637 122.662678 74.436574 C 121.298953 74.3806 119.991202 74.3806 118.68345 74.436574 C 117.248486 74.497637 117.375699 75.861362 117.375699 77.703409 L 117.375699 92.93337 L 114.999357 94.297095 C 114.694045 94.531168 114.515946 94.775417 114.515946 95.182499 C 114.515946 95.543785 114.694045 95.777857 114.999357 96.027195 L 117.375699 97.39092 L 117.375699 112.310481 C 117.375699 113.389249 117.375699 114.096554 117.436761 114.462928 C 117.492735 115.521342 117.843843 115.94369 118.85646 115.94369 C 119.991202 115.999664 121.181917 115.999664 122.31157 115.999664 C 123.431046 115.882627 123.792331 115.521342 123.909367 114.330627 L 123.909367 110.351398 C 123.97043 106.361993 123.97043 104.40291 123.97043 104.514858 C 123.97043 103.456444 124.214679 102.672811 124.677735 102.092719 C 124.983047 101.731434 125.639467 101.731434 125.929513 102.092719 C 126.234824 102.443827 126.580844 103.039185 126.94213 103.934766 C 127.176202 104.458884 128.020897 106.606243 129.440596 110.239451 C 130.270026 112.371544 130.692374 113.501197 130.748348 113.735269 C 131.343706 115.404306 132.473359 116.1167 134.086422 115.999664 L 135.740193 115.999664 C 137.587328 115.999664 137.831578 115.999664 138.778044 115.882627 C 139.256365 115.765591 139.546411 115.28727 139.429375 114.808948 Z M 171.599043 94.414132 L 169.217613 93.050406 L 169.217613 77.647435 C 169.217613 76.034372 169.334649 74.55361 168.031986 74.436574 C 167.202556 74.3806 166.245913 74.3806 165.228207 74.3806 C 162.266685 74.3806 162.210711 74.436574 162.210711 77.357389 L 162.210711 103.629454 C 162.210711 106.361993 161.788363 108.987673 159.116886 109.450729 C 156.969528 109.756041 155.778813 107.552709 155.71775 106.010885 C 155.661777 105.359553 155.661777 104.591186 155.661777 103.690516 L 155.661777 78.125756 C 155.661777 75.917336 155.895849 74.55361 154.298051 74.436574 C 153.107336 74.324627 149.7082 74.263564 149.056868 74.858922 C 148.766822 75.148968 148.649786 76.034372 148.649786 77.474425 L 148.649786 93.050406 L 146.268356 94.414132 C 145.90707 94.587142 145.73406 94.836479 145.73406 95.243562 C 145.73406 95.604847 145.90707 95.910159 146.268356 96.083168 L 148.649786 97.446894 L 148.649786 105.110216 C 148.649786 106.489206 148.883858 108.20404 149.36218 110.239451 C 149.591164 111.063792 150.013511 111.83216 150.491833 112.544554 C 153.702694 116.712057 158.577503 117.536399 163.574436 115.826654 C 163.920456 115.709617 164.281741 115.521342 164.576876 115.231296 C 167.736851 112.732829 169.334649 109.756041 169.217613 106.244957 C 169.217613 104.224812 169.161639 100.713728 169.161639 97.507956 L 171.599043 96.083168 C 171.950152 95.910159 172.077365 95.604847 172.077365 95.243562 C 172.077365 94.836479 171.950152 94.587142 171.599043 94.414132 Z M 197.810046 96.139142 C 196.751633 94.892453 196.100301 94.297095 195.026622 93.340452 L 195.677954 92.165003 C 196.100301 91.498406 195.62198 90.724949 194.833258 90.724949 L 191.988771 90.724949 C 191.571512 90.246628 190.742082 89.422287 190.569072 89.188214 C 188.782999 87.157892 188.070606 85.020711 188.360652 82.756316 C 188.782999 79.433508 192.411119 78.777088 193.835907 81.931975 L 194.431264 83.46871 C 194.660248 84.135307 195.13857 84.425353 195.850963 84.425353 C 197.275751 84.425353 198.827752 84.135307 200.440815 83.601012 C 201.020907 83.351674 201.326219 83.005654 201.209182 82.29326 C 200.613825 77.296326 196.680393 71.464874 187.938304 73.668207 C 184.137174 74.614673 181.231625 77.952746 180.87034 82.583306 C 180.565028 86.562534 181.888045 90.190654 184.732532 93.27939 L 186.401569 94.948427 L 185.444926 96.622552 C 185.093817 97.273884 185.572139 98.103314 186.345595 98.042251 L 189.551367 98.042251 L 190.090751 98.581635 C 193.179487 101.731434 194.431264 102.265729 194.370202 105.766636 C 194.370202 107.37461 193.179487 108.931699 191.759788 109.277719 C 190.263761 109.644093 189.073045 108.987673 188.126579 107.318636 C 187.826356 106.723279 187.70932 106.361993 187.53631 105.649599 C 187.475248 105.242517 187.342946 104.998268 187.342946 104.881232 C 186.996926 103.629454 186.574579 103.268169 185.383863 103.339408 C 184.732532 103.339408 183.368806 103.517507 181.409724 103.807553 C 180.157946 103.995828 180.336044 105.47659 180.447992 106.361993 C 180.753304 108.336342 181.582733 110.412461 183.002433 112.615793 C 183.485843 113.328187 184.25421 113.984607 185.266827 114.635938 C 186.940953 115.638378 188.900035 116.1167 191.16443 115.999664 C 195.199632 115.765591 196.329285 116.172673 199.000762 113.022875 C 200.308513 111.48614 201.14812 109.756041 201.382192 107.85802 C 201.97755 103.517507 200.847897 99.594252 197.810046 96.139142 Z M 197.810046 96.139142 " stroke="#74247b" stroke-width="2.229896" stroke-opacity="1" stroke-miterlimit="4"/></svg>