<svg xmlns="http://www.w3.org/2000/svg" xmlns:xlink="http://www.w3.org/1999/xlink" width="600" zoomAndPan="magnify" viewBox="0 0 450 299.999988" height="400" preserveAspectRatio="xMidYMid meet" version="1.0"><defs><clipPath id="id1"><path d="M 157 121 L 303 121 L 303 256.652344 L 157 256.652344 Z M 157 121 " clip-rule="nonzero"/></clipPath></defs><g clip-path="url(#id1)"><path fill="#ffffff" d="M 233.488281 124.75 C 228.84375 121.167969 217.144531 119.558594 212.140625 123.046875 C 207.230469 126.449219 206.691406 132.082031 204.371094 137.183594 C 202.226562 136.199219 198.65625 137.628906 198.03125 139.597656 C 197.226562 140.582031 197.226562 143.175781 196.691406 144.519531 C 173.378906 148.277344 169.894531 166.4375 167.035156 187.101562 C 163.285156 208.035156 154.890625 228.96875 158.550781 250.527344 C 158.105469 251.242188 157.660156 251.867188 157.390625 252.671875 C 156.585938 254.105469 157.660156 256.074219 159.265625 255.984375 C 161.410156 255.804688 163.554688 255.535156 165.785156 255.445312 C 171.859375 255.269531 177.933594 255.269531 183.917969 255.355469 L 184.722656 255.355469 C 215.179688 255.714844 245.722656 256.519531 276.179688 256.699219 C 277.253906 256.699219 277.789062 255.714844 277.699219 254.730469 C 277.433594 252.761719 277.164062 250.792969 276.804688 248.828125 C 284.042969 250.707031 291.722656 251.242188 298.867188 249.003906 C 299.402344 248.46875 297.707031 248.738281 297.4375 248.648438 C 304.046875 244.085938 302.082031 234.601562 301.457031 227.714844 C 297.796875 204.1875 296.546875 178.066406 282.433594 157.9375 C 276.628906 149.707031 267.605469 143.265625 257.425781 141.746094 L 257.15625 141.746094 C 254.121094 141.386719 250.816406 141.207031 248.226562 139.597656 C 245.277344 137.273438 244.027344 132.890625 240.902344 132.800781 C 239.917969 132.800781 238.488281 134.050781 236.972656 134.945312 C 236.882812 132.976562 235.808594 131.367188 235.542969 129.847656 L 235.542969 129.757812 C 235.273438 127.96875 235.542969 126.449219 233.488281 124.75 Z M 183.472656 187.636719 C 189.992188 183.074219 206.960938 185.402344 207.320312 185.667969 C 208.210938 186.207031 208.570312 186.296875 209.015625 187.011719 C 209.460938 187.101562 209.910156 187.101562 210.355469 187.191406 C 211.25 187.457031 210.625 188.621094 209.550781 188.175781 C 210.175781 190.945312 208.300781 192.824219 207.585938 195.597656 C 207.320312 196.492188 207.585938 198.015625 207.585938 199 C 207.496094 200.160156 206.246094 201.503906 206.425781 202.667969 C 207.140625 206.78125 211.25 210.71875 209.550781 214.652344 C 208.390625 216.890625 204.996094 218.054688 202.761719 218.769531 C 198.03125 220.558594 189.902344 218.679688 187.132812 214.652344 C 185.703125 212.507812 184.007812 207.050781 183.113281 205.351562 L 182.933594 202.667969 C 182.398438 195.867188 182.042969 188.621094 183.472656 187.636719 Z M 183.472656 187.636719 " fill-opacity="1" fill-rule="evenodd"/></g><path fill="#000000" d="M 241.972656 132.441406 C 241.527344 132.082031 240.8125 132.53125 241.167969 133.066406 C 241.792969 134.320312 242.507812 135.484375 243.3125 136.554688 C 243.847656 137.183594 244.386719 137.808594 245.011719 138.433594 C 243.582031 139.6875 242.332031 141.296875 241.082031 142.730469 C 239.5625 144.609375 238.132812 146.574219 236.4375 148.277344 C 234.738281 149.976562 232.863281 151.136719 230.628906 151.945312 L 230.183594 152.121094 C 227.949219 152.925781 225.539062 154 224.289062 156.148438 C 224.019531 156.59375 224.554688 157.132812 225.003906 156.863281 C 227.234375 155.523438 229.828125 155.253906 232.238281 154.359375 C 234.558594 153.464844 236.613281 152.121094 238.402344 150.421875 C 240.1875 148.722656 241.707031 146.753906 243.222656 144.875 C 244.742188 142.996094 246.4375 141.386719 248.226562 139.777344 C 251.082031 141.65625 254.300781 142.460938 257.515625 143.355469 L 257.78125 143.265625 C 261.085938 144.070312 264.300781 145.054688 267.429688 146.398438 C 270.109375 147.648438 272.789062 149.171875 275.019531 151.136719 C 277.34375 153.285156 279.21875 156.058594 280.824219 158.742188 C 284.578125 164.824219 287.167969 171.445312 289.488281 178.15625 C 291.902344 185.132812 293.867188 192.199219 295.5625 199.355469 C 296.367188 203.023438 297.082031 206.691406 297.617188 210.359375 C 297.886719 212.148438 298.152344 213.9375 298.332031 215.726562 C 298.511719 217.605469 298.601562 219.574219 299.226562 221.453125 C 299.492188 222.257812 300.027344 222.527344 300.652344 222.527344 L 300.742188 224.046875 C 300.921875 226.015625 301.011719 228.074219 301.101562 230.128906 C 301.191406 233.53125 301.191406 236.839844 300.921875 240.238281 L 300.921875 240.6875 C 300.742188 243.101562 300.296875 245.875 298.511719 247.664062 C 296.636719 249.542969 293.6875 250.078125 291.097656 250.167969 C 285.023438 250.167969 279.21875 247.304688 273.949219 244.800781 C 268.5 242.207031 263.230469 239.433594 258.050781 236.300781 C 255.460938 234.691406 252.78125 233.082031 250.28125 231.472656 C 249.027344 230.667969 247.777344 229.863281 246.527344 228.96875 C 245.8125 228.519531 245.097656 227.984375 244.386719 227.535156 C 244.742188 227.179688 244.921875 226.640625 244.5625 226.195312 C 246.617188 224.40625 247.511719 221.09375 247.601562 218.5 C 247.691406 216.351562 247.332031 214.296875 247.152344 212.148438 C 247.0625 211.074219 246.886719 210 246.707031 208.929688 C 246.617188 208.480469 246.617188 208.035156 246.527344 207.585938 C 252.246094 210.808594 258.050781 213.582031 264.035156 216.085938 C 267.070312 217.335938 270.195312 218.5 273.324219 219.484375 L 273.949219 219.753906 C 276.894531 220.738281 280.023438 221.632812 283.058594 222.167969 C 283.238281 222.167969 283.328125 221.988281 283.148438 221.898438 C 280.109375 220.558594 277.074219 219.484375 273.949219 218.230469 L 273.414062 218.054688 C 273.5 218.054688 273.5 218.054688 273.589844 218.054688 C 275.378906 217.605469 277.164062 216.980469 278.859375 216.351562 C 280.46875 215.816406 282.34375 215.546875 283.863281 214.742188 C 283.953125 214.652344 283.953125 214.5625 283.773438 214.476562 C 282.078125 214.386719 280.199219 214.832031 278.503906 215.191406 L 277.878906 215.28125 C 276.804688 215.457031 275.734375 215.636719 274.664062 215.90625 C 274.664062 215.546875 274.394531 215.191406 274.128906 215.011719 C 271.089844 212.6875 271.359375 208.125 271 204.722656 L 270.734375 202.21875 C 270.285156 197.835938 269.839844 193.363281 269.125 188.980469 C 269.125 188.710938 268.769531 188.800781 268.769531 189.070312 C 268.769531 194.527344 269.125 199.894531 269.304688 205.351562 L 269.304688 206.246094 C 269.394531 209.554688 269.484375 213.042969 271.625 215.636719 C 271.359375 215.457031 270.910156 215.457031 270.734375 215.726562 C 270.464844 216.085938 270.285156 216.441406 270.285156 216.890625 C 268.410156 216.085938 266.535156 215.28125 264.570312 214.476562 C 258.496094 211.789062 252.601562 208.75 246.796875 205.527344 C 246.171875 205.171875 245.546875 205.4375 245.277344 205.886719 C 244.472656 205.4375 243.402344 205.796875 242.6875 206.421875 C 242.6875 206.421875 242.6875 206.421875 242.597656 206.511719 C 241.707031 206.15625 240.902344 205.617188 240.1875 204.902344 C 238.667969 203.472656 237.328125 201.773438 236.257812 200.070312 C 234.203125 196.941406 232.417969 193.363281 229.558594 190.769531 C 227.234375 188.621094 224.46875 187.28125 221.429688 186.472656 C 221.429688 186.386719 221.429688 186.296875 221.339844 186.207031 C 221.164062 186.027344 221.074219 186.027344 220.894531 186.117188 L 220.625 185.578125 C 220.449219 185.3125 220.269531 185.042969 220.269531 184.953125 C 219.914062 184.507812 219.554688 184.148438 219.199219 183.699219 C 218.574219 182.984375 217.945312 182.269531 217.144531 181.824219 C 215.445312 180.75 213.570312 181.375 211.785156 181.910156 C 210.710938 182.269531 209.640625 182.628906 208.570312 182.984375 L 208.480469 182.984375 C 207.675781 183.253906 206.78125 183.433594 206.425781 184.328125 C 206.246094 184.683594 206.246094 185.042969 206.335938 185.3125 C 198.746094 183.34375 190.347656 184.238281 182.933594 186.5625 C 182.667969 186.652344 182.398438 186.921875 182.308594 187.191406 C 181.507812 191.574219 181.058594 196.046875 181.507812 200.429688 C 181.863281 204.277344 182.667969 208.035156 184.273438 211.523438 L 184.542969 211.703125 C 186.0625 214.921875 188.382812 218.949219 192.046875 219.933594 C 194.277344 220.558594 196.691406 220.199219 198.921875 220.109375 C 201.066406 220.019531 203.300781 220.019531 205.441406 219.664062 C 207.320312 219.394531 209.015625 218.5 210.175781 216.980469 C 211.160156 215.636719 211.695312 214.027344 212.140625 212.417969 C 212.320312 212.507812 212.5 212.507812 212.765625 212.597656 C 213.570312 212.953125 214.285156 213.492188 214.910156 214.027344 C 216.25 215.371094 217.320312 216.890625 218.75 218.140625 C 220 219.304688 221.519531 220.109375 223.039062 220.828125 C 226.253906 222.257812 229.738281 222.792969 233.132812 223.511719 L 233.398438 223.597656 C 235.988281 224.136719 238.578125 224.851562 240.902344 226.195312 C 240.902344 226.550781 241.167969 227 241.4375 227.179688 C 241.082031 227.535156 240.902344 228.160156 241.257812 228.699219 C 242.242188 230.21875 243.9375 231.113281 245.457031 232.1875 L 245.546875 232.277344 C 247.0625 233.261719 248.582031 234.246094 250.101562 235.230469 C 253.226562 237.195312 256.351562 238.984375 259.570312 240.777344 C 264.75 243.546875 269.929688 246.230469 275.289062 248.648438 C 274.929688 250.257812 275.109375 251.867188 274.839844 253.476562 L 274.839844 253.746094 C 274.753906 254.375 274.839844 254.820312 275.289062 255.179688 C 275.378906 255.179688 275.378906 255.269531 275.46875 255.269531 L 275.554688 255.269531 C 275.914062 255.535156 276.449219 255.535156 276.894531 255.269531 L 277.074219 255.269531 C 277.609375 255 277.96875 254.195312 277.789062 253.566406 C 277.253906 252.046875 277.074219 250.527344 276.539062 249.003906 L 276.894531 249.183594 L 277.433594 249.453125 C 283.058594 251.867188 289.3125 253.925781 295.472656 252.316406 C 298.152344 251.601562 300.742188 249.988281 302.082031 247.484375 C 303.421875 244.980469 303.601562 242.117188 303.691406 239.34375 C 303.78125 235.945312 303.601562 232.457031 303.15625 229.054688 C 302.886719 226.730469 302.53125 224.492188 301.90625 222.167969 C 302.171875 221.898438 302.441406 221.542969 302.441406 221.09375 C 302.707031 218.949219 302.261719 216.710938 301.992188 214.5625 C 301.726562 212.507812 301.367188 210.359375 301.101562 208.300781 C 300.386719 204.097656 299.582031 199.894531 298.601562 195.777344 C 296.902344 188.351562 294.667969 181.105469 291.992188 174.039062 L 291.722656 173.414062 C 289.222656 166.882812 286.363281 160.621094 282.34375 154.894531 C 280.378906 152.210938 278.414062 149.707031 275.644531 147.738281 C 273.144531 145.859375 270.195312 144.609375 267.25 143.535156 C 264.300781 142.550781 261.265625 141.835938 258.140625 141.386719 C 255.011719 140.941406 251.707031 140.671875 248.761719 139.417969 C 249.117188 138.792969 248.851562 137.808594 248.226562 137.453125 C 245.8125 135.929688 243.847656 134.050781 241.972656 132.441406 Z M 174.628906 193.003906 C 174.539062 192.914062 174.359375 192.914062 174.359375 193.09375 C 175.34375 197.296875 176.324219 201.503906 176.949219 205.796875 C 178.113281 213.492188 177.84375 221.363281 177.753906 229.144531 L 177.753906 229.503906 C 177.664062 233.707031 177.664062 237.914062 177.488281 242.117188 C 177.398438 244.265625 177.308594 246.410156 177.398438 248.46875 C 177.398438 249.632812 177.753906 250.707031 177.84375 251.867188 C 177.933594 252.851562 177.84375 253.835938 177.84375 254.820312 C 177.84375 255.445312 178.828125 255.445312 178.828125 254.820312 L 178.914062 254.015625 C 179.003906 252.941406 179.183594 251.957031 179.542969 250.972656 C 179.988281 249.8125 180.167969 248.648438 180.253906 247.394531 C 180.433594 245.515625 180.613281 243.546875 180.613281 241.582031 L 180.703125 240.238281 C 181.058594 232.1875 181.058594 224.046875 180.433594 215.996094 L 180.433594 215.457031 C 179.898438 207.765625 178.914062 199.535156 174.628906 193.003906 Z M 196.421875 144.875 C 196.691406 144.785156 196.601562 144.339844 196.332031 144.429688 L 195.796875 144.519531 C 191.867188 145.503906 188.027344 146.488281 184.273438 148.277344 C 180.613281 150.066406 177.488281 152.660156 174.984375 155.878906 C 170.164062 162.140625 168.199219 169.835938 166.589844 177.4375 C 164.804688 185.9375 163.195312 194.4375 161.5 202.933594 L 161.140625 204.542969 C 159.535156 212.417969 157.925781 220.378906 156.855469 228.339844 L 156.765625 228.878906 C 155.605469 237.109375 154.890625 245.605469 156.140625 253.835938 C 156.410156 255.445312 159.085938 255.089844 159 253.476562 C 158.730469 248.828125 158.460938 244.175781 158.640625 239.523438 C 158.820312 234.871094 159.265625 230.21875 159.980469 225.566406 C 160.515625 221.632812 161.320312 217.875 162.035156 213.9375 L 162.125 213.3125 C 162.75 210 163.375 206.78125 164 203.472656 L 164.894531 198.550781 C 166.324219 191.214844 167.75 183.789062 169.359375 176.542969 L 169.449219 176.097656 C 171.054688 169.03125 173.378906 161.695312 178.023438 156.148438 C 182.847656 150.511719 189.722656 147.648438 196.421875 144.875 Z M 213.839844 219.484375 C 213.75 219.214844 213.304688 219.214844 213.214844 219.484375 C 212.765625 220.378906 212.675781 221.542969 212.589844 222.527344 L 212.589844 222.617188 C 212.5 223.867188 212.410156 225.121094 212.320312 226.371094 C 212.230469 228.699219 212.140625 231.113281 212.140625 233.441406 C 212.140625 235.855469 212.230469 238.269531 212.320312 240.6875 L 212.320312 241.3125 C 212.410156 243.371094 212.675781 245.785156 213.660156 247.574219 C 214.015625 248.199219 215 248.023438 215.179688 247.394531 C 215.894531 245.160156 215.535156 242.566406 215.355469 240.328125 L 215.179688 238.539062 C 215 236.75 214.910156 235.050781 214.820312 233.261719 C 214.640625 230.84375 214.554688 228.429688 214.464844 226.015625 C 214.464844 225.210938 214.375 224.40625 214.375 223.6875 L 214.285156 222.527344 C 214.195312 221.542969 214.195312 220.46875 213.839844 219.484375 Z M 290.828125 222.617188 L 290.5625 222.347656 C 289.667969 221.453125 288.417969 220.019531 287.078125 220.109375 C 286.542969 220.109375 286.183594 220.558594 286.273438 221.183594 C 286.542969 222.347656 287.703125 222.972656 288.507812 223.6875 C 289.398438 224.492188 290.292969 225.300781 291.1875 226.105469 C 291.992188 226.820312 292.703125 227.625 293.417969 228.429688 L 293.6875 228.699219 C 293.957031 228.96875 295.832031 230.667969 295.5625 231.113281 C 295.472656 231.203125 295.5625 231.292969 295.652344 231.292969 C 296.457031 231.023438 296.367188 230.308594 296.097656 229.683594 C 295.472656 228.339844 294.492188 227.089844 293.597656 225.925781 C 292.792969 224.671875 291.902344 223.6875 290.828125 222.617188 Z M 210.890625 189.070312 C 211.515625 187.636719 213.839844 187.636719 215.089844 187.726562 C 218.394531 187.90625 221.878906 188.800781 224.824219 190.320312 C 227.859375 191.929688 229.828125 194.4375 231.703125 197.210938 L 231.792969 197.296875 C 233.578125 200.070312 235.273438 203.292969 238.042969 205.171875 C 239.472656 206.15625 241.082031 207.050781 242.777344 207.40625 C 242.867188 207.585938 243.046875 207.765625 243.3125 207.855469 L 243.402344 207.855469 C 243.847656 207.945312 244.652344 208.125 245.277344 208.035156 C 245.277344 208.390625 245.277344 208.660156 245.277344 209.019531 C 245.277344 209.914062 245.277344 210.808594 245.277344 211.613281 C 245.277344 213.402344 245.367188 215.28125 245.277344 217.070312 C 245.1875 218.679688 245.011719 220.378906 244.207031 221.808594 C 243.671875 222.882812 242.867188 223.597656 241.972656 224.226562 C 239.742188 222.882812 237.238281 222.078125 234.648438 221.453125 C 231.523438 220.738281 228.398438 220.199219 225.359375 219.214844 C 223.929688 218.769531 222.503906 218.054688 221.25 217.246094 C 219.914062 216.351562 218.839844 215.101562 217.859375 213.847656 L 217.679688 213.667969 C 216.609375 212.417969 215.445312 211.253906 213.929688 210.539062 C 212.589844 210 210.890625 209.824219 209.730469 208.929688 C 209.105469 208.480469 209.105469 207.765625 209.015625 207.050781 C 209.730469 207.140625 210.535156 206.960938 211.25 206.871094 L 211.605469 206.871094 C 212.320312 206.78125 212.945312 206.691406 213.660156 206.511719 C 213.75 206.511719 213.75 206.246094 213.660156 206.246094 C 212.855469 206.066406 212.050781 205.976562 211.25 205.886719 L 211.070312 205.886719 C 210.355469 205.796875 209.550781 205.617188 208.835938 205.796875 C 208.746094 205.261719 208.480469 204.8125 208.210938 204.367188 C 207.855469 203.648438 207.140625 202.933594 207.050781 202.128906 C 207.050781 201.859375 207.050781 201.59375 207.230469 201.414062 L 207.230469 201.324219 C 207.320312 201.234375 207.320312 201.144531 207.40625 201.144531 C 207.40625 201.144531 207.40625 201.144531 207.496094 201.144531 C 208.03125 201.324219 208.570312 201.054688 208.835938 200.609375 C 209.910156 200.789062 211.160156 200.699219 212.230469 200.789062 L 213.304688 200.878906 C 214.464844 200.964844 215.625 200.964844 216.609375 200.699219 C 216.785156 200.699219 216.785156 200.429688 216.609375 200.339844 C 215.269531 199.804688 213.75 199.625 212.320312 199.355469 C 211.515625 199.265625 210.800781 199.175781 209.996094 199 C 209.460938 198.910156 208.925781 198.820312 208.390625 198.820312 C 207.050781 197.121094 207.765625 194.527344 209.640625 193.808594 C 210.355469 194.078125 210.890625 193.898438 211.695312 193.898438 C 212.410156 193.808594 213.214844 193.808594 213.929688 193.808594 C 215.445312 193.808594 216.964844 194.167969 218.484375 194.078125 C 218.75 194.078125 218.929688 193.71875 218.75 193.542969 C 217.589844 192.648438 215.980469 192.289062 214.554688 192.109375 L 214.285156 192.109375 C 213.839844 192.019531 213.214844 191.929688 212.589844 191.929688 C 212.410156 191.664062 212.230469 191.484375 211.875 191.394531 C 211.785156 191.394531 211.695312 191.394531 211.515625 191.394531 C 210.625 191.125 210.625 189.605469 210.890625 189.070312 Z M 272.789062 217.695312 C 272.875 217.695312 272.875 217.695312 272.789062 217.695312 L 272.875 217.785156 Z M 195.171875 185.757812 C 199.011719 185.3125 202.761719 185.402344 206.605469 185.578125 C 206.871094 186.5625 207.945312 187.457031 209.015625 187.457031 C 208.210938 188.710938 208.121094 190.320312 208.660156 191.664062 C 207.496094 192.109375 206.425781 193.003906 205.800781 194.257812 C 204.90625 195.957031 205.085938 197.835938 205.890625 199.445312 C 205.175781 200.070312 204.726562 201.234375 204.726562 202.21875 C 204.816406 203.382812 205.441406 204.367188 205.980469 205.261719 C 206.605469 206.246094 206.605469 207.140625 206.78125 208.300781 C 207.050781 210 208.210938 210.984375 209.640625 211.613281 L 209.550781 211.878906 C 209.195312 213.3125 208.746094 214.832031 207.675781 215.90625 C 206.335938 217.246094 204.191406 217.246094 202.40625 217.335938 L 202.316406 217.335938 C 200.621094 217.425781 199.011719 217.515625 197.316406 217.605469 L 196.066406 217.695312 C 194.1875 217.785156 192.3125 217.785156 190.796875 216.53125 C 188.292969 214.476562 186.507812 211.074219 185.4375 208.035156 C 183.113281 201.683594 183.113281 194.703125 184.1875 188.085938 C 187.667969 186.921875 191.421875 186.117188 195.171875 185.757812 Z M 226.789062 196.316406 C 225.984375 196.402344 225.449219 197.03125 225.269531 197.835938 C 225.003906 198.910156 225.09375 199.894531 224.46875 200.878906 C 223.753906 201.859375 223.394531 202.667969 223.21875 204.007812 C 223.21875 204.542969 223.21875 205.082031 223.039062 205.527344 L 222.949219 205.886719 C 222.859375 206.246094 222.769531 206.601562 222.859375 207.050781 C 222.859375 207.40625 223.039062 207.675781 223.484375 207.855469 C 224.644531 208.125 225.628906 207.230469 225.894531 206.15625 C 226.164062 205.171875 225.808594 204.007812 226.164062 203.113281 C 226.34375 202.578125 226.789062 202.21875 226.96875 201.683594 C 227.148438 201.144531 227.324219 200.609375 227.324219 200.070312 C 227.414062 199 226.433594 197.746094 226.96875 196.851562 C 227.148438 196.582031 227.058594 196.316406 226.789062 196.316406 Z M 242.867188 185.578125 C 242.0625 185.402344 241.082031 185.042969 240.277344 185.3125 C 239.828125 185.492188 239.652344 185.9375 240.007812 186.296875 C 240.632812 186.921875 241.527344 186.921875 242.332031 187.101562 L 242.417969 187.101562 C 243.402344 187.28125 244.386719 187.457031 245.367188 187.636719 C 247.152344 187.90625 249.027344 188.175781 250.90625 188.441406 C 252.78125 188.710938 254.65625 188.890625 256.621094 189.070312 L 257.335938 189.15625 C 258.941406 189.246094 260.640625 189.425781 262.160156 189.15625 C 262.425781 189.15625 262.335938 188.800781 262.160156 188.710938 C 260.460938 188.175781 258.585938 188.085938 256.800781 187.816406 C 254.925781 187.546875 253.046875 187.367188 251.171875 187.011719 C 249.296875 186.742188 247.421875 186.386719 245.546875 186.027344 C 244.5625 185.847656 243.671875 185.667969 242.867188 185.578125 Z M 213.304688 183.878906 C 214.015625 183.613281 214.820312 183.253906 215.625 183.34375 C 216.964844 183.523438 218.125 184.863281 219.199219 185.757812 L 218.660156 185.667969 C 215.894531 185.132812 212.320312 184.59375 210 186.296875 C 209.820312 186.027344 209.640625 185.757812 209.371094 185.578125 C 209.371094 185.578125 209.371094 185.578125 209.285156 185.492188 L 209.195312 185.3125 L 209.460938 185.222656 C 210.085938 185.042969 210.800781 184.683594 210.890625 184.683594 C 211.695312 184.417969 212.5 184.148438 213.304688 183.878906 Z M 235.722656 126.539062 C 235.808594 125.105469 233.578125 125.105469 233.488281 126.539062 C 233.21875 129.667969 233.933594 132.800781 235.453125 135.484375 C 235.453125 135.484375 235.453125 135.484375 235.453125 135.574219 C 234.46875 136.109375 233.578125 136.554688 232.59375 137.003906 C 231.34375 137.539062 230.09375 138.078125 228.753906 138.433594 C 227.59375 138.792969 226.164062 138.972656 225.183594 139.777344 C 223.128906 141.476562 223.84375 144.875 224.289062 147.113281 L 224.378906 147.46875 C 224.554688 148.632812 224.734375 149.796875 224.199219 150.871094 C 223.664062 152.03125 222.679688 152.925781 221.699219 153.734375 L 221.519531 153.910156 C 220.714844 154.628906 219.734375 155.609375 219.109375 156.59375 C 218.574219 155.433594 217.769531 154.539062 216.964844 153.464844 C 216.429688 152.75 216.785156 152.480469 217.234375 151.765625 C 217.589844 151.050781 217.859375 150.332031 217.679688 149.527344 C 217.410156 148.007812 216.25 146.933594 215.089844 146.128906 C 213.660156 145.144531 212.140625 144.429688 210.710938 143.535156 C 207.765625 141.746094 204.816406 139.597656 202.226562 137.273438 C 202.136719 137.183594 202.050781 137.273438 202.050781 137.363281 C 204.101562 140.492188 206.515625 143.175781 209.460938 145.503906 C 210.625 146.398438 211.964844 147.203125 213.214844 148.007812 L 213.570312 148.277344 C 214.105469 148.632812 214.730469 149.082031 214.910156 149.617188 C 215.179688 150.152344 214.640625 150.601562 214.375 151.050781 C 213.570312 152.570312 213.929688 153.910156 214.910156 155.164062 L 215.089844 155.34375 C 216.070312 156.59375 216.875 157.757812 217.234375 159.277344 C 218.035156 162.679688 216.964844 166.257812 215.804688 169.386719 L 215.714844 169.476562 C 215.089844 171.175781 214.464844 172.875 213.929688 174.664062 L 213.75 175.113281 C 213.304688 176.722656 212.855469 178.332031 213.390625 179.945312 C 213.570312 180.480469 214.375 180.660156 214.640625 180.121094 C 215.714844 178.242188 216.070312 176.007812 216.695312 173.949219 C 217.410156 171.980469 218.125 170.015625 218.839844 168.046875 C 219.644531 165.453125 220.269531 162.679688 219.914062 159.996094 C 219.914062 159.996094 219.914062 159.996094 219.914062 159.90625 L 220.269531 159.546875 C 220.894531 158.296875 221.429688 157.132812 222.503906 156.148438 C 223.574219 155.074219 224.824219 154.179688 225.71875 152.839844 C 227.59375 150.066406 226.433594 146.933594 226.253906 143.890625 L 226.253906 143.535156 C 226.253906 142.90625 226.164062 142.011719 226.609375 141.566406 C 227.058594 141.03125 228.128906 140.941406 228.753906 140.761719 C 230.363281 140.222656 231.96875 139.507812 233.398438 138.703125 C 234.828125 137.988281 236.167969 137.09375 237.507812 136.109375 L 238.132812 135.574219 C 239.203125 134.765625 240.1875 133.960938 240.902344 132.890625 C 240.992188 132.800781 240.8125 132.53125 240.722656 132.621094 C 239.5625 133.066406 238.488281 133.871094 237.417969 134.5 C 237.417969 134.5 237.417969 134.410156 237.328125 134.410156 C 236.078125 131.996094 235.542969 129.308594 235.722656 126.539062 Z M 198.921875 143.085938 C 198.476562 141.835938 196.332031 141.925781 196.421875 143.445312 C 196.511719 144.609375 196.957031 145.59375 197.40625 146.664062 L 197.492188 146.753906 C 197.941406 147.828125 198.476562 148.902344 199.101562 149.886719 C 200.351562 151.765625 201.78125 153.554688 203.300781 155.253906 C 204.640625 156.773438 206.515625 157.667969 208.570312 157.578125 C 209.460938 157.488281 210.355469 157.3125 211.070312 156.863281 C 211.964844 156.328125 212.945312 154.804688 214.105469 155.164062 C 214.195312 155.164062 214.285156 155.074219 214.195312 154.984375 C 212.855469 153.910156 211.335938 155.609375 210 155.96875 C 208.03125 156.59375 206.066406 155.878906 204.816406 154.359375 C 203.476562 152.75 202.316406 150.871094 201.246094 149.082031 C 200.710938 148.1875 200.171875 147.203125 199.726562 146.21875 C 199.371094 145.234375 199.28125 144.160156 198.921875 143.085938 Z M 202.050781 135.394531 C 202.136719 135.214844 201.871094 135.035156 201.78125 135.125 C 200.886719 135.660156 200.171875 136.46875 199.28125 137.09375 C 198.386719 137.808594 197.492188 138.523438 196.511719 139.242188 C 195.171875 140.3125 196.691406 142.191406 197.941406 141.03125 C 199.546875 139.597656 201.335938 137.539062 202.050781 135.394531 Z M 206.960938 129.222656 C 206.605469 127.789062 204.460938 128.414062 204.816406 129.757812 C 205.441406 131.996094 204.550781 134.320312 202.761719 135.839844 L 202.675781 135.929688 C 201.511719 136.824219 203.121094 138.433594 204.28125 137.539062 C 206.691406 135.574219 207.675781 132.261719 206.960938 129.222656 Z M 206.960938 129.222656 " fill-opacity="1" fill-rule="evenodd"/><path fill="#ffffff" d="M 216.308594 57.289062 C 187.90625 58.183594 186.207031 71.691406 186.207031 94.414062 C 186.207031 117.136719 200.945312 131.269531 206.394531 133.773438 C 211.839844 136.28125 226.132812 147.015625 238.992188 142.09375 C 251.855469 137.175781 248.191406 116.332031 248.191406 107.292969 C 248.191406 98.257812 244.710938 56.394531 216.308594 57.289062 Z M 216.308594 57.289062 " fill-opacity="1" fill-rule="evenodd"/><path fill="#000000" d="M 204.785156 126.347656 C 210.054688 129.300781 216.039062 129.390625 221.578125 127.511719 C 224.972656 126.4375 228.007812 124.738281 230.957031 122.683594 C 233.457031 120.890625 235.6875 118.925781 237.921875 116.867188 C 239.707031 112.839844 241.40625 108.816406 242.121094 104.433594 C 242.835938 100.496094 242.921875 96.382812 242.121094 92.445312 C 236.226562 87.613281 230.417969 82.785156 224.613281 77.863281 C 221.667969 75.359375 218.71875 72.941406 215.683594 70.4375 C 214.164062 69.1875 212.644531 67.933594 211.128906 66.679688 C 210.859375 66.5 210.589844 66.234375 210.414062 66.054688 C 207.285156 68.378906 203.890625 70.347656 200.765625 72.675781 C 199.160156 73.925781 197.550781 75.269531 196.03125 76.609375 C 195.230469 77.328125 194.425781 78.042969 193.710938 78.847656 C 192.996094 79.5625 192.371094 80.546875 191.386719 80.816406 C 191.210938 80.816406 191.121094 80.816406 191.03125 80.816406 C 189.691406 92.265625 188.796875 104.699219 194.425781 115.167969 C 196.835938 119.730469 200.230469 123.84375 204.785156 126.347656 Z M 238.726562 130.554688 C 239.441406 129.929688 238.367188 128.855469 237.652344 129.480469 C 233.1875 133.59375 227.292969 135.832031 221.398438 136.816406 C 220.414062 136.996094 220.863281 138.425781 221.753906 138.246094 C 228.007812 137.261719 234.082031 134.847656 238.726562 130.554688 Z M 244.175781 136.90625 C 245.066406 136.457031 244.261719 135.117188 243.371094 135.5625 C 239.886719 137.441406 236.046875 138.425781 232.117188 139.050781 C 231.132812 139.230469 231.582031 140.664062 232.472656 140.484375 C 236.582031 139.859375 240.511719 138.875 244.175781 136.90625 Z M 229.882812 73.210938 C 226.9375 70.617188 223.898438 68.113281 220.59375 66.054688 C 217.289062 63.90625 213.628906 62.65625 209.699219 62.65625 C 209.964844 62.835938 210.234375 63.101562 210.5 63.371094 C 211.214844 63.996094 212.019531 64.625 212.734375 65.25 C 214.253906 66.5 215.683594 67.84375 217.199219 69.097656 C 220.058594 71.691406 223.007812 74.195312 225.863281 76.789062 C 231.3125 81.621094 236.671875 86.71875 242.03125 91.90625 C 242.03125 91.820312 241.941406 91.640625 241.941406 91.550781 C 240.15625 84.214844 235.421875 78.132812 229.882812 73.210938 Z M 207.109375 62.835938 C 207.109375 62.746094 207.109375 62.746094 207.109375 62.65625 C 199.515625 63.640625 193.265625 69.1875 191.121094 76.519531 C 191.296875 76.789062 191.386719 77.058594 191.386719 77.414062 C 191.386719 77.59375 191.386719 77.773438 191.296875 77.863281 C 191.566406 77.683594 191.835938 77.503906 192.101562 77.238281 C 192.816406 76.433594 193.621094 75.714844 194.425781 75 C 196.03125 73.480469 197.730469 72.136719 199.515625 70.886719 C 202.640625 68.648438 205.945312 66.589844 209.609375 65.519531 C 209.339844 65.339844 209.160156 65.160156 208.894531 64.890625 C 208.089844 64.265625 207.464844 63.816406 207.109375 62.835938 Z M 193.621094 55.050781 C 198.265625 49.953125 204.695312 46.285156 211.484375 44.941406 C 217.914062 43.691406 224.613281 44.496094 230.777344 46.910156 C 243.546875 51.921875 253.640625 63.011719 258.375 75.804688 C 261.144531 83.230469 262.039062 91.460938 261.234375 99.332031 C 260.429688 107.207031 258.019531 115.347656 253.730469 122.054688 C 253.375 122.683594 252.925781 123.21875 252.480469 123.84375 C 252.660156 126.171875 253.460938 128.40625 254.625 130.375 C 254.714844 130.464844 254.714844 130.554688 254.800781 130.644531 C 256.054688 131.539062 257.304688 132.433594 258.554688 133.328125 C 259.625 134.132812 260.699219 134.9375 261.769531 135.742188 C 262.75 136.546875 263.824219 137.441406 264.539062 138.605469 C 265.074219 139.5 265.253906 140.753906 264.539062 141.558594 C 263.644531 142.628906 262.125 142.273438 260.964844 142.273438 C 260.875 142.273438 260.785156 142.273438 260.699219 142.273438 C 260.339844 142.542969 259.984375 142.71875 259.625 142.898438 C 256.054688 144.777344 252.390625 146.746094 248.730469 148.625 C 241.316406 152.472656 234.171875 156.316406 226.757812 159.808594 C 223.363281 161.417969 219.703125 162.847656 215.859375 162.847656 C 212.289062 162.847656 208.984375 161.417969 206.214844 159.269531 C 203 156.765625 200.320312 153.632812 197.730469 150.59375 C 196.65625 149.339844 195.675781 148.085938 194.691406 146.835938 C 192.816406 146.210938 190.851562 146.03125 189.15625 147.28125 C 187.816406 148.265625 185.941406 146.925781 185.941406 145.402344 C 185.941406 144.867188 185.941406 144.332031 186.027344 143.882812 C 186.386719 140.664062 187.90625 137.800781 189.691406 135.207031 C 190.671875 133.773438 191.65625 132.34375 192.636719 130.910156 C 192.90625 130.554688 193.085938 130.285156 193.351562 129.929688 C 189.332031 123.933594 186.027344 117.3125 184.0625 110.335938 C 182.011719 103 181.296875 95.488281 181.742188 87.882812 C 182.367188 76.074219 185.582031 63.816406 193.621094 55.050781 Z M 193.621094 55.050781 " fill-opacity="1" fill-rule="evenodd"/><path fill="#000000" d="M 207.832031 118.128906 C 209.082031 117.59375 210.242188 116.789062 211.046875 115.625 C 211.3125 115.175781 211.402344 114.820312 211.3125 114.460938 C 211.222656 114.015625 211.046875 113.65625 210.6875 113.386719 C 210.332031 113.121094 209.882812 113.03125 209.527344 113.121094 C 209.171875 113.121094 208.8125 113.296875 208.542969 113.746094 L 208.457031 113.835938 C 208.007812 114.460938 207.292969 115 206.578125 115.355469 C 205.867188 115.714844 205.152344 115.894531 204.257812 115.804688 C 202.738281 115.625 201.667969 114.730469 200.507812 113.65625 C 200.328125 113.476562 200.238281 113.386719 200.058594 113.207031 C 199.96875 113.03125 199.882812 112.941406 199.703125 112.941406 C 199.523438 112.851562 199.34375 112.851562 199.257812 112.941406 C 199.078125 113.03125 198.988281 113.121094 198.898438 113.207031 C 198.808594 113.296875 198.71875 113.476562 198.808594 113.65625 C 198.898438 114.820312 199.523438 115.894531 200.328125 116.789062 C 201.308594 117.683594 202.5625 118.308594 203.8125 118.578125 C 205.152344 118.753906 206.578125 118.578125 207.832031 118.128906 Z M 203.1875 99.789062 C 201.757812 100.683594 199.613281 102.652344 201.132812 104.800781 C 202.917969 106.679688 205.507812 104.53125 206.847656 103.546875 C 208.007812 102.832031 209.347656 104.800781 208.277344 105.695312 C 198.988281 112.582031 195.238281 100.058594 202.5625 98.804688 C 203.273438 98.714844 203.632812 99.523438 203.1875 99.789062 Z M 219.796875 91.828125 C 219.621094 89.859375 216.671875 89.414062 216.40625 91.382812 C 216.136719 93.082031 216.492188 94.691406 217.207031 96.300781 C 217.921875 97.820312 219.796875 97.105469 219.976562 95.765625 C 220.15625 93.886719 219.886719 93.082031 219.796875 91.828125 Z M 197.113281 91.023438 C 196.664062 90.488281 196.128906 90.128906 195.414062 90.308594 C 193.183594 90.933594 193.808594 94.15625 194.613281 95.675781 C 195.058594 96.480469 196.398438 96.75 197.023438 96.03125 C 198.09375 94.78125 198.542969 92.363281 197.292969 91.203125 C 197.203125 91.113281 197.203125 91.023438 197.113281 91.023438 Z M 217.207031 83.242188 L 216.851562 83.152344 C 215.78125 82.972656 214.351562 82.792969 213.636719 83.6875 C 213.1875 84.136719 213.101562 85.03125 213.636719 85.476562 C 214.617188 86.28125 215.691406 85.925781 216.851562 86.011719 C 217.832031 86.101562 218.726562 86.191406 219.621094 86.460938 C 221.675781 86.996094 223.28125 88.070312 225.070312 89.234375 C 225.335938 89.414062 225.515625 89.054688 225.425781 88.875 C 224.441406 86.910156 222.476562 85.296875 220.511719 84.3125 C 219.53125 83.957031 218.371094 83.507812 217.207031 83.242188 Z M 199.167969 82.433594 L 198.898438 82.523438 C 195.953125 83.152344 192.109375 84.402344 190.679688 87.265625 C 190.59375 87.714844 190.679688 87.804688 190.769531 87.804688 C 190.769531 87.890625 190.859375 87.890625 191.039062 87.980469 C 191.128906 87.980469 191.128906 87.980469 191.21875 87.980469 C 191.84375 87.804688 192.378906 87.625 192.824219 87.355469 L 193.359375 86.996094 C 193.984375 86.730469 194.613281 86.371094 195.238281 86.191406 C 196.664062 85.746094 198.09375 85.386719 199.523438 85.207031 C 199.882812 85.207031 200.148438 85.03125 200.417969 84.851562 C 200.683594 84.671875 200.863281 84.402344 200.863281 84.136719 C 200.953125 83.6875 200.953125 83.417969 200.683594 83.0625 C 200.507812 82.792969 200.238281 82.613281 199.96875 82.433594 C 199.792969 82.347656 199.523438 82.347656 199.167969 82.433594 Z M 199.167969 82.433594 " fill-opacity="1" fill-rule="evenodd"/><path fill="#000000" d="M 186.359375 100.976562 C 188.683594 103.390625 192.433594 104.015625 195.558594 102.765625 C 203.417969 99.453125 199.578125 89.253906 193.503906 86.480469 C 192.792969 86.304688 191.71875 85.855469 190.828125 85.765625 C 190.738281 85.765625 190.558594 85.855469 190.378906 85.765625 C 183.679688 86.480469 182.164062 96.859375 186.359375 100.976562 M 211.546875 101.601562 C 214.136719 105 218.871094 106.074219 222.800781 104.464844 C 230.570312 101.421875 227.804688 92.386719 222.535156 88.808594 C 211.367188 84.605469 206.8125 95.339844 211.546875 101.601562 M 228.25 93.996094 C 228.339844 93.996094 228.339844 93.996094 228.25 93.996094 C 228.25 93.996094 228.160156 93.996094 228.160156 93.90625 C 228.160156 93.996094 228.25 93.996094 228.25 93.996094 C 228.25 94.085938 228.25 93.996094 228.25 93.996094 M 181 90.328125 C 181.625 90.328125 182.519531 90.417969 183.054688 90.867188 C 184.304688 86.480469 189.039062 82.546875 193.238281 85.410156 C 196.453125 86.480469 198.863281 88.808594 200.292969 91.851562 C 202.792969 90.417969 206.636719 91.042969 208.777344 92.921875 C 210.207031 88.273438 213.601562 86.660156 217.710938 86.394531 C 222.175781 85.675781 226.640625 90.0625 228.070312 93.550781 C 229.230469 93.460938 230.929688 93.011719 232.089844 93.726562 C 239.144531 91.851562 251.5625 90.867188 252.992188 91.851562 C 253.972656 92.207031 254.597656 94.710938 253.167969 94.800781 C 251.917969 94.625 253.347656 93.011719 252.097656 92.832031 C 245.398438 92.386719 238.878906 93.726562 232.269531 94.355469 C 231.644531 95.160156 229.769531 95.429688 228.785156 95.070312 C 230.214844 101.152344 226.730469 105.179688 221.550781 106.429688 C 213.511719 108.308594 206.457031 101.0625 208.601562 93.550781 C 206.1875 92.296875 203.332031 92.386719 200.742188 93.011719 C 205.207031 109.382812 178.859375 108.667969 182.964844 91.402344 C 180.199219 92.832031 179.574219 90.597656 181 90.328125 " fill-opacity="1" fill-rule="evenodd"/></svg>