<svg xmlns="http://www.w3.org/2000/svg" xmlns:xlink="http://www.w3.org/1999/xlink" width="300" zoomAndPan="magnify" viewBox="0 0 224.87999 149.999998" height="200" preserveAspectRatio="xMidYMid meet" version="1.0"><defs><g/></defs><g fill="#ededed" fill-opacity="1"><g transform="translate(64.022786, 119.404254)"><g><path d="M 36.886719 -37.792969 C 34.851562 -40.167969 33.605469 -41.300781 31.570312 -43.113281 L 32.816406 -45.375 C 33.605469 -46.621094 32.703125 -48.089844 31.230469 -48.089844 L 25.800781 -48.089844 C 25.007812 -48.996094 23.421875 -50.578125 23.082031 -51.03125 C 19.6875 -54.878906 18.332031 -58.953125 18.898438 -63.253906 C 19.6875 -69.589844 26.589844 -70.835938 29.308594 -64.835938 L 30.4375 -61.894531 C 30.890625 -60.652344 31.796875 -60.085938 33.152344 -60.085938 C 35.871094 -60.085938 38.8125 -60.652344 41.867188 -61.667969 C 43 -62.121094 43.5625 -62.800781 43.339844 -64.160156 C 42.207031 -73.664062 34.738281 -84.753906 18.105469 -80.566406 C 10.863281 -78.753906 5.316406 -72.417969 4.640625 -63.59375 C 4.074219 -56.011719 6.5625 -49.109375 11.996094 -43.226562 L 15.164062 -40.054688 L 13.351562 -36.886719 C 12.671875 -35.644531 13.578125 -34.058594 15.050781 -34.171875 L 21.160156 -34.171875 L 22.179688 -33.152344 C 28.0625 -27.15625 30.4375 -26.136719 30.324219 -19.460938 C 30.324219 -16.40625 28.0625 -13.464844 25.347656 -12.785156 C 22.519531 -12.109375 20.253906 -13.351562 18.445312 -16.519531 C 17.878906 -17.652344 17.652344 -18.332031 17.3125 -19.6875 C 17.199219 -20.480469 16.972656 -20.933594 16.972656 -21.160156 C 16.292969 -23.535156 15.503906 -24.214844 13.238281 -24.101562 C 11.996094 -24.101562 9.390625 -23.761719 5.65625 -23.195312 C 3.28125 -22.855469 3.621094 -20.027344 3.847656 -18.332031 C 4.414062 -14.597656 5.996094 -10.636719 8.710938 -6.449219 C 9.617188 -5.09375 11.089844 -3.847656 13.011719 -2.601562 C 16.179688 -0.679688 19.914062 0.226562 24.214844 0 C 31.910156 -0.453125 34.058594 0.339844 39.152344 -5.65625 C 41.640625 -8.601562 43.226562 -11.882812 43.675781 -15.503906 C 44.808594 -23.761719 42.660156 -31.230469 36.886719 -37.792969 Z M 36.886719 -37.792969 "/></g></g></g><g fill="#ededed" fill-opacity="1"><g transform="translate(120.259796, 119.404254)"><g><path d="M 46.394531 -24.894531 C 46.507812 -30.550781 44.921875 -35.417969 41.527344 -39.265625 C 39.71875 -41.414062 39.71875 -42.320312 41.300781 -44.46875 C 48.203125 -53.636719 45.828125 -68.910156 38.472656 -75.246094 C 34.851562 -78.300781 30.550781 -79.773438 25.234375 -79.660156 C 23.421875 -79.546875 21.046875 -79.546875 18.105469 -79.546875 C 9.503906 -79.660156 7.015625 -79.886719 5.882812 -78.753906 C 5.429688 -78.300781 5.207031 -76.605469 5.207031 -73.890625 L 5.207031 -44.015625 L 0.679688 -41.414062 C 0 -40.960938 -0.226562 -40.507812 -0.226562 -39.71875 C -0.226562 -39.039062 0 -38.585938 0.679688 -38.132812 L 5.207031 -35.53125 L 5.207031 -7.242188 C 5.207031 -3.507812 5.207031 -1.808594 5.996094 -0.90625 C 6.5625 -0.339844 7.46875 0 8.710938 0 C 30.210938 0.226562 35.304688 1.246094 41.867188 -6.5625 C 44.921875 -10.183594 46.394531 -14.144531 46.28125 -18.671875 C 46.28125 -21.273438 46.28125 -23.421875 46.394531 -24.894531 Z M 19.6875 -62.574219 C 20.140625 -65.402344 21.5 -66.308594 24.441406 -66.082031 C 27.496094 -65.855469 29.421875 -64.160156 30.324219 -61.328125 L 31.003906 -57.933594 C 31.003906 -55.445312 30.4375 -53.070312 29.308594 -51.03125 C 28.628906 -49.902344 27.609375 -49.109375 26.136719 -48.65625 C 18.21875 -46.054688 18.898438 -57.03125 19.6875 -62.574219 Z M 30.210938 -17.085938 C 28.855469 -14.597656 26.476562 -13.464844 22.96875 -13.578125 C 19.011719 -13.804688 19.574219 -15.503906 19.574219 -23.875 C 19.574219 -31.570312 19.125 -33.042969 22.179688 -34.625 C 25.347656 -36.097656 29.757812 -33.492188 31.003906 -29.984375 C 32.703125 -25.460938 32.363281 -21.160156 30.210938 -17.085938 Z M 30.210938 -17.085938 "/></g></g></g><path stroke-linecap="butt" transform="matrix(1.21241, 0, 0, 1.21241, 30.037675, 13.773294)" fill="none" stroke-linejoin="miter" d="M 54.32541 51.830643 C 52.662915 49.868513 51.635133 48.934165 49.950085 47.432765 L 50.974646 45.586622 C 51.635133 44.536287 50.884433 43.3313 49.653671 43.3313 L 45.188133 43.3313 C 44.527646 42.577378 43.229225 41.278957 42.955365 40.914884 C 40.152321 37.725214 39.034326 34.37445 39.491834 30.820706 C 40.152321 25.604468 45.848621 24.576686 48.08139 29.522285 L 49.015737 31.938702 C 49.379811 32.985816 50.133733 33.440102 51.248506 33.440102 C 53.481275 33.440102 55.920245 32.985816 58.449427 32.141681 C 59.361222 31.755054 59.838062 31.207333 59.657636 30.092559 C 58.723288 22.253704 52.546927 13.093875 38.831347 16.557405 C 32.861187 18.039474 28.305437 23.278265 27.735162 30.546846 C 27.255101 36.790866 29.329997 42.487165 33.795535 47.33933 L 36.41493 49.961947 L 34.910308 52.581343 C 34.365809 53.605903 35.116509 54.904325 36.324718 54.814112 L 41.36053 54.814112 L 42.204665 55.658247 C 47.056829 60.600624 49.015737 61.444759 48.925524 66.934857 C 48.925524 69.46404 47.056829 71.90301 44.82406 72.450731 C 42.475303 73.021005 40.606608 71.993222 39.127761 69.373827 C 38.647699 68.439479 38.467274 67.869205 38.193413 66.754431 C 38.1032 66.116497 37.896999 65.729871 37.896999 65.546223 C 37.349278 63.587315 36.688791 63.01704 34.820096 63.129807 C 33.795535 63.129807 31.652979 63.403667 28.576075 63.861175 C 26.617167 64.157589 26.891027 66.480571 27.074675 67.869205 C 27.551515 70.968662 28.849936 74.225991 31.082705 77.689522 C 31.836627 78.807517 33.044835 79.832078 34.63967 80.856638 C 37.259065 82.42892 40.335969 83.182842 43.889712 82.999194 C 50.223946 82.635121 52.002428 83.273055 56.194105 78.327456 C 58.243227 75.914261 59.564201 73.201431 59.931496 70.217962 C 60.865844 63.403667 59.087361 57.253082 54.32541 51.830643 Z M 108.546575 62.469319 C 108.64001 57.797581 107.341589 53.789551 104.538546 50.622434 C 103.056477 48.843952 103.056477 48.093252 104.354898 46.314769 C 110.051197 38.749775 108.092289 26.171521 102.031916 20.93273 C 99.045225 18.4261 95.491482 17.195339 91.093604 17.285552 C 89.611535 17.40154 87.652627 17.40154 85.216879 17.40154 C 78.128724 17.285552 76.079603 17.105126 75.145255 18.039474 C 74.77796 18.4261 74.574981 19.814734 74.574981 22.047503 L 74.574981 46.701396 L 70.860143 48.843952 C 70.289869 49.208025 70.109443 49.594652 70.109443 50.235808 C 70.109443 50.80286 70.289869 51.166934 70.860143 51.556782 L 74.574981 53.696116 L 74.574981 77.029035 C 74.574981 80.105938 74.574981 81.494572 75.235468 82.248494 C 75.712307 82.725334 76.443676 82.999194 77.468237 82.999194 C 95.217622 83.182842 99.409299 84.023755 104.83496 77.576756 C 107.341589 74.593287 108.546575 71.332735 108.456362 67.595344 C 108.456362 65.45601 108.456362 63.677528 108.546575 62.469319 Z M 86.537853 31.390981 C 86.901927 29.064777 88.0167 28.314077 90.45567 28.497725 C 92.9623 28.67815 94.557134 30.092559 95.307835 32.415541 L 95.855556 35.218584 C 95.855556 37.267706 95.401269 39.229836 94.466922 40.914884 C 93.896647 41.849231 93.052512 42.487165 91.847526 42.873792 C 85.307092 45.016348 85.877366 35.969285 86.537853 31.390981 Z M 95.217622 68.919541 C 94.080295 70.968662 92.118165 71.90301 89.224909 71.790243 C 85.967579 71.606596 86.444419 70.217962 86.444419 63.313454 C 86.444419 56.956668 86.057792 55.748459 88.586975 54.450038 C 91.20637 53.219277 94.830995 55.384386 95.855556 58.277642 C 97.269965 61.99248 96.973551 65.546223 95.217622 68.919541 Z M 95.217622 68.919541 " stroke="#74247b" stroke-width="3.499999" stroke-opacity="1" stroke-miterlimit="4"/></svg>